<svg width="152" height="152" viewBox="0 0 152 152" fill="none" xmlns="http://www.w3.org/2000/svg">
<path d="M37.6401 113.951C43.4465 108.145 43.4464 98.7304 37.64 92.9241C31.8335 87.1179 22.4194 87.1181 16.613 92.9247C10.8066 98.7313 10.8067 108.145 16.6132 113.952C22.4196 119.758 31.8337 119.758 37.6401 113.951Z" fill="#FF899A"/>
<path d="M123.626 86.4768C131.212 83.3344 134.815 74.637 131.672 67.0506C128.53 59.4642 119.833 55.8617 112.246 59.0041C104.66 62.1464 101.057 70.8438 104.2 78.4302C107.342 86.0166 116.039 89.6192 123.626 86.4768Z" fill="#FFD0C4"/>
<path d="M112.682 109.842C122.573 106.847 128.163 96.4018 125.169 86.5111C122.175 76.6203 111.729 71.0296 101.839 74.0239C91.9477 77.0182 86.3571 87.4636 89.3514 97.3544C92.3457 107.245 102.791 112.836 112.682 109.842Z" fill="#FFF5EE"/>
<path d="M107.258 110.879C96.8116 110.879 88.3125 102.38 88.3125 91.9338C88.3125 81.4871 96.8116 72.9883 107.258 72.9883C117.705 72.9883 126.204 81.4871 126.204 91.9338C126.204 102.38 117.705 110.879 107.258 110.879ZM107.258 73.4561C97.0699 73.4561 88.7809 81.7453 88.7809 91.9341C88.7809 102.123 97.0702 110.412 107.258 110.412C117.447 110.412 125.735 102.123 125.735 91.9341C125.735 81.745 117.447 73.4561 107.258 73.4561Z" fill="#7600FF"/>
<path d="M118.055 92.6015H106.846C106.815 92.6016 106.784 92.5956 106.756 92.5838C106.728 92.5721 106.702 92.5549 106.68 92.5332C106.658 92.5115 106.641 92.4857 106.629 92.4573C106.617 92.429 106.611 92.3985 106.611 92.3678V84.1595C106.611 84.0974 106.636 84.0378 106.68 83.9939C106.724 83.95 106.783 83.9253 106.846 83.9253C106.908 83.9253 106.967 83.95 107.011 83.9939C107.055 84.0378 107.08 84.0974 107.08 84.1595V92.134H118.055C118.086 92.1324 118.118 92.1373 118.148 92.1483C118.177 92.1594 118.205 92.1763 118.228 92.1982C118.251 92.2201 118.269 92.2464 118.281 92.2755C118.294 92.3047 118.3 92.3361 118.3 92.3678C118.3 92.3995 118.294 92.4309 118.281 92.4601C118.269 92.4892 118.251 92.5155 118.228 92.5374C118.205 92.5592 118.177 92.5762 118.148 92.5872C118.118 92.5983 118.086 92.6031 118.055 92.6015Z" fill="#7600FF"/>
<path d="M21.2194 120.992L74.8821 18.7774C76.5026 15.6905 80.0336 14.124 83.4098 14.9937L123.42 25.3019C128.099 26.5073 130.44 31.7513 128.215 36.0394L73.2476 141.957C71.5112 145.303 67.565 146.844 64.0204 145.562L25.3149 131.55C21.0315 130 19.1021 125.025 21.2194 120.992Z" fill="#401A49"/>
<path d="M80.5104 17.141L121.902 27.0665C123.672 27.4908 124.581 29.4562 123.759 31.0795L69.1765 138.875C68.8668 139.487 68.3446 139.964 67.7079 140.219C67.0712 140.473 66.3636 140.487 65.7176 140.257L25.2957 125.865C23.6858 125.292 22.9527 123.43 23.7396 121.913L77.352 18.5833C77.6418 18.0248 78.1102 17.5793 78.6826 17.3179C79.255 17.0564 79.8985 16.9942 80.5104 17.141Z" fill="#FFF5EE"/>
<path d="M86.9196 16.7866L85.2317 20.291C84.4675 21.8776 85.3298 23.7689 87.029 24.2325L108.049 29.9654C108.649 30.1289 109.286 30.0895 109.861 29.8533C110.436 29.617 110.917 29.1972 111.229 28.6592L113.938 23.981L86.9196 16.7866Z" fill="#401A49"/>
<path d="M117.729 53.063C117.577 53.063 117.423 53.0305 117.278 52.961L116.574 52.6265C116.321 52.5065 116.127 52.2911 116.032 52.0277C115.938 51.7642 115.952 51.4742 116.072 51.2211L120.336 42.1833C120.571 41.688 121.155 41.4498 121.668 41.6466L122.423 41.9345C122.559 41.9864 122.683 42.0658 122.787 42.1678C122.891 42.2698 122.973 42.3922 123.028 42.5272C123.082 42.6628 123.108 42.808 123.103 42.9539C123.098 43.0998 123.064 43.2432 123.001 43.3751L118.685 52.4595C118.599 52.6403 118.464 52.7929 118.294 52.8997C118.125 53.0065 117.929 53.0631 117.729 53.063ZM120.549 42.2838L116.285 51.3215C116.192 51.5183 116.18 51.7438 116.254 51.9488C116.327 52.1537 116.478 52.3212 116.675 52.4146L117.378 52.7491C117.575 52.8426 117.801 52.8541 118.007 52.7809C118.212 52.7078 118.38 52.5561 118.474 52.3591L122.79 43.2749C122.89 43.0651 122.896 42.8307 122.809 42.6153C122.768 42.51 122.704 42.4145 122.624 42.3351C122.543 42.2557 122.446 42.194 122.34 42.154L121.585 41.8662C121.189 41.7164 120.731 41.8975 120.549 42.2838Z" fill="#FFF5EE"/>
<path d="M15.457 71.3691L35.3074 35.231L90.278 51.4336L70.5972 88.2503L15.457 71.3691Z" fill="#9747FF" fill-opacity="0.68"/>
<path d="M67.6064 65.1605C65.5066 71.7577 59.3275 76.5428 52.0243 76.5428C42.9836 76.5428 35.6523 69.2116 35.6523 60.1708C35.6523 51.1301 42.9836 43.7988 52.0243 43.7988C53.8547 43.7988 55.6204 44.0961 57.2649 44.6537L50.993 58.9814L67.6064 65.1605Z" fill="#7600FF"/>
<path d="M53.209 58.1942L59.219 45.8579C59.219 45.8579 65.5452 47.2814 67.6014 52.5003C69.6575 57.7193 67.4433 63.255 67.4433 63.255L53.209 58.1942ZM91.6376 61.2716L95.2348 54.0771L103.269 56.5952L100.031 63.9096L91.6376 61.2716ZM86.6814 71.9432L90.2786 64.7488L98.3123 67.2668L95.075 74.5812L86.6814 71.9432ZM81.026 83.1542L84.6232 75.96L92.6568 78.4781L89.4193 85.7922L81.026 83.1542Z" fill="#FFD0C4"/>
<path d="M96.0319 61.2046C95.9623 61.2046 95.895 61.1798 95.8421 61.1347C95.7891 61.0896 95.7539 61.0272 95.7428 60.9585L95.3442 58.4688C95.3321 58.3922 95.3509 58.3139 95.3964 58.2511C95.442 58.1883 95.5105 58.1461 95.5871 58.1337C95.7547 58.1113 95.8965 58.218 95.9222 58.3766L96.2497 60.4239L101.35 57.1314C101.415 57.0892 101.494 57.0747 101.57 57.091C101.646 57.1073 101.712 57.1532 101.755 57.2184C101.797 57.2836 101.811 57.363 101.795 57.4389C101.779 57.5149 101.733 57.5812 101.667 57.6234L96.1905 61.1585C96.1431 61.1886 96.0881 61.2046 96.0319 61.2046ZM91.0165 71.782C90.9502 71.7821 90.8861 71.7585 90.8357 71.7155C90.7853 71.6725 90.752 71.6129 90.7417 71.5474L90.3625 69.1768C90.351 69.1039 90.3688 69.0293 90.4121 68.9695C90.4554 68.9097 90.5207 68.8695 90.5936 68.8577C90.6298 68.8514 90.6669 68.8524 90.7027 68.8607C90.7385 68.869 90.7723 68.8844 90.802 68.906C90.8317 68.9275 90.8568 68.9549 90.8758 68.9863C90.8948 69.0178 90.9073 69.0527 90.9125 69.0891L91.2243 71.0379L96.0824 67.9023C96.1131 67.8825 96.1475 67.8689 96.1835 67.8623C96.2195 67.8557 96.2565 67.8563 96.2923 67.864C96.328 67.8717 96.362 67.8864 96.3921 67.9072C96.4222 67.9281 96.4479 67.9546 96.4677 67.9854C96.4876 68.0161 96.5012 68.0505 96.5078 68.0865C96.5143 68.1225 96.5137 68.1594 96.506 68.1952C96.4983 68.231 96.4836 68.2649 96.4628 68.295C96.442 68.3251 96.4155 68.3508 96.3847 68.3707L91.1678 71.7374C91.1227 71.7665 91.0702 71.7819 91.0165 71.782ZM84.859 83.3733C84.7926 83.3734 84.7283 83.3498 84.6777 83.3066C84.6272 83.2635 84.5937 83.2037 84.5833 83.1381L84.2066 80.7454C84.2008 80.7092 84.2023 80.6722 84.2109 80.6365C84.2194 80.6009 84.2349 80.5673 84.2565 80.5376C84.3 80.4778 84.3655 80.4376 84.4387 80.4261C84.5118 80.4145 84.5865 80.4325 84.6464 80.476C84.7063 80.5195 84.7464 80.5851 84.758 80.6582L85.0674 82.6239L89.8847 79.4637C89.9153 79.443 89.9497 79.4285 89.986 79.4212C90.0222 79.4138 90.0595 79.4138 90.0958 79.421C90.132 79.4283 90.1665 79.4426 90.1971 79.4633C90.2278 79.484 90.254 79.5106 90.2743 79.5415C90.2945 79.5724 90.3085 79.6071 90.3152 79.6434C90.322 79.6798 90.3214 79.7171 90.3136 79.7532C90.3058 79.7894 90.2908 79.8236 90.2697 79.8539C90.2485 79.8842 90.2215 79.91 90.1903 79.9298L85.0118 83.3272C84.9666 83.3574 84.9134 83.3734 84.859 83.3733Z" fill="#401A49"/>
<path d="M55.8242 17.5676H61.5541V37.4106H55.8242V17.5676Z" fill="#F05D6A"/>
<path d="M63.8672 14.0947H69.5971V37.4102H63.8672V14.0947Z" fill="#9747FF" fill-opacity="0.68"/>
<path d="M72.1094 10.7463H77.8393V37.4103H72.1094V10.7463Z" fill="#FF899A"/>
<path d="M57.7094 15.9471C57.5896 15.947 57.4745 15.901 57.3876 15.8185C57.3008 15.736 57.249 15.6234 57.2428 15.5038C57.2366 15.3801 57.2799 15.2589 57.363 15.167C57.4461 15.0751 57.5623 15.0199 57.686 15.0136C63.8488 14.6986 69.902 11.38 73.4821 6.35225C73.5539 6.25131 73.663 6.18304 73.7852 6.16248C73.9073 6.14192 74.0327 6.17075 74.1337 6.24262C74.2346 6.31449 74.3029 6.42351 74.3234 6.54571C74.344 6.66791 74.3152 6.79327 74.2433 6.89421C70.5013 12.1486 64.1748 15.617 57.733 15.9462C57.725 15.9465 57.7173 15.9471 57.7094 15.9471Z" fill="#401A49"/>
<path d="M73.7962 10.6488C73.6771 10.6486 73.5627 10.6028 73.4762 10.521C73.3898 10.4392 73.3378 10.3274 73.3311 10.2085C73.2675 9.1187 73.415 7.95735 73.7601 6.79453C72.5166 7.41204 71.1608 7.77121 69.7746 7.85038C69.5131 7.85629 69.2968 7.66835 69.282 7.41067C69.2785 7.34945 69.2871 7.28814 69.3073 7.23023C69.3274 7.17233 69.3588 7.11897 69.3996 7.0732C69.4404 7.02743 69.4899 6.99014 69.5451 6.96347C69.6003 6.9368 69.6602 6.92127 69.7214 6.91776C71.3804 6.82359 72.9841 6.28832 74.3671 5.36723C74.4504 5.31133 74.5496 5.28386 74.6498 5.28892C74.7501 5.29398 74.846 5.3313 74.9233 5.39531C75.0822 5.52622 75.1369 5.74548 75.0571 5.9352C74.4602 7.36486 74.1863 8.82408 74.2628 10.1547C74.2699 10.2783 74.2277 10.3996 74.1455 10.4921C74.0633 10.5846 73.9478 10.6408 73.8243 10.6482L73.7962 10.6488Z" fill="#401A49"/>
<path d="M129.372 6.25806H106.82C101.481 6.25806 97.1523 10.5863 97.1523 15.9256V20.8248C97.1523 26.164 101.481 30.4923 106.82 30.4923H112.713L111.439 39.169L117.51 30.4923H129.372C134.711 30.4923 139.039 26.164 139.039 20.8248V15.9256C139.04 10.5863 134.711 6.25806 129.372 6.25806Z" fill="#7600FF"/>
<path d="M111.501 24.313C111.557 24.313 111.618 24.3074 111.696 24.313L111.501 24.3187L111.322 24.3299C111.322 24.3243 111.384 24.3187 111.501 24.313Z" fill="#401A49"/>
<path d="M119.765 26.0759C119.768 26.2835 119.73 26.4897 119.652 26.6823C119.575 26.875 119.46 27.0503 119.314 27.1981C119.168 27.3459 118.995 27.4633 118.803 27.5434C118.611 27.6236 118.406 27.6648 118.198 27.6648C117.991 27.6648 117.785 27.6236 117.593 27.5434C117.402 27.4633 117.228 27.3459 117.082 27.1981C116.937 27.0503 116.822 26.875 116.744 26.6823C116.667 26.4897 116.628 26.2835 116.631 26.0759C116.637 25.664 116.804 25.2709 117.098 24.9816C117.391 24.6923 117.786 24.5301 118.198 24.5301C118.61 24.5301 119.006 24.6923 119.299 24.9816C119.592 25.2709 119.76 25.664 119.765 26.0759ZM118.732 12.1484H117.343V10.3496C117.343 10.1654 117.416 9.98873 117.547 9.85847C117.677 9.72821 117.854 9.65503 118.038 9.65503C118.222 9.65503 118.399 9.72821 118.529 9.85847C118.659 9.98873 118.732 10.1654 118.732 10.3496V12.1484Z" fill="#7600FF" fill-opacity="0.64"/>
<path d="M41.6413 99.432L42.0999 98.5148C42.5827 97.5494 43.3935 96.7876 44.387 96.3659C45.3806 95.9442 46.4918 95.8901 47.5216 96.2134L65.2721 101.787C67.9855 102.639 69.2567 105.748 67.9178 108.257L65.3744 113.024L44.227 105.757C41.6298 104.865 40.4132 101.889 41.6413 99.432Z" fill="#7600FF"/>
<path d="M51.4419 102.967C51.2318 103.711 50.4614 104.145 49.7209 103.936C48.9803 103.727 48.5504 102.954 48.7602 102.211C48.9703 101.467 49.7407 101.033 50.4812 101.242C51.2221 101.451 51.652 102.224 51.4419 102.967ZM55.4644 104.103C55.2543 104.847 54.4839 105.281 53.7433 105.072C53.0028 104.863 52.5728 104.09 52.7826 103.346C52.9924 102.602 53.7631 102.168 54.5037 102.377C55.2445 102.586 55.6745 103.359 55.4644 104.103ZM59.4079 105.216C59.1981 105.96 58.4274 106.394 57.6869 106.185C56.9463 105.976 56.5164 105.203 56.7262 104.459C56.9363 103.715 57.7067 103.282 58.4472 103.491C59.188 103.7 59.618 104.472 59.4079 105.216Z" fill="#FFF5EE"/>
<path d="M68.6586 122.021L68.8779 121.02C69.1087 119.966 68.9563 118.863 68.4482 117.911C67.94 116.959 67.1093 116.219 66.1049 115.824L48.792 109.011C46.1454 107.97 43.2039 109.589 42.6694 112.383L41.6543 117.69L62.6737 125.318C65.2553 126.256 68.0715 124.704 68.6586 122.021Z" fill="#F05D6A"/>
<path d="M57.9821 118.173C57.7306 118.904 58.1165 119.7 58.8441 119.95C59.5716 120.2 60.3653 119.81 60.6168 119.08C60.8683 118.349 60.4824 117.553 59.7548 117.303C59.0273 117.052 58.2336 117.442 57.9821 118.173ZM54.0297 116.813C53.7782 117.544 54.1641 118.34 54.8917 118.59C55.6192 118.84 56.4129 118.45 56.6644 117.72C56.9159 116.989 56.53 116.193 55.8024 115.943C55.0749 115.693 54.2814 116.082 54.0297 116.813ZM50.155 115.48C49.9035 116.211 50.2894 117.007 51.017 117.257C51.7445 117.507 52.5382 117.117 52.7897 116.387C53.0412 115.656 52.6553 114.86 51.9277 114.61C51.2002 114.359 50.4065 114.749 50.155 115.48Z" fill="#FFF5EE"/>
</svg>
