<svg width="170" height="169" viewBox="0 0 170 169" fill="none" xmlns="http://www.w3.org/2000/svg">
<path d="M34.2211 131.757C20.0214 125.656 10.4657 110.884 8.93939 95.5055C7.48342 80.8401 12.5887 69.8822 24.3917 60.7142C50.3226 40.5725 104.223 36.1967 143.563 62.6227C164.592 76.7484 165.615 97.8447 154.229 114.057C146.087 125.648 132.667 132.667 118.874 135.894C105.081 139.121 90.7506 138.953 76.5863 138.768C68.2865 138.66 59.9866 138.552 51.7611 137.717C43.4967 144.824 34.8631 151.491 25.8965 157.689C28.3255 149.267 31.1675 140.965 34.2211 131.757Z" fill="#7E11FE"/>
<path d="M73.1272 100.037C54.2395 84.5588 51.4718 57.1738 61.2292 43.4914C74.3079 25.1516 108.71 28.0649 115.143 51.2054C119.663 67.4637 106.289 89.4281 94.2037 101.301C93.4353 102.056 92.6061 102.823 91.5654 103.103C90.6613 103.346 89.7037 103.193 88.7798 103.038C84.0432 102.245 78.0308 104.055 73.1275 100.037L73.1272 100.037Z" fill="#FCD8BE"/>
<path d="M78.3145 120.49C78.6781 121.437 79.2364 122.297 79.9533 123.015C80.514 123.53 81.1954 123.896 81.9348 124.079C82.6741 124.262 83.4476 124.255 84.1839 124.061C84.9201 123.866 85.5954 123.489 86.1476 122.964C86.6997 122.439 87.1108 121.784 87.3431 121.059C84.3339 120.863 81.3244 120.674 78.3145 120.49Z" fill="#0038A6"/>
<path d="M87.898 105.206C87.0489 96.7301 87.0697 88.1896 87.9601 79.718C85.3699 80.2857 82.69 80.3096 80.09 79.7883C80.4115 86.4057 78.9249 94.9669 75.2976 102.698C75.2529 102.798 75.1886 102.889 75.1087 102.964C75.0287 103.039 74.9346 103.097 74.8318 103.135C74.7291 103.173 74.6197 103.191 74.5102 103.186C74.4007 103.181 74.2931 103.155 74.1939 103.109C74.0946 103.062 74.0057 102.996 73.9322 102.915C73.8586 102.834 73.8021 102.738 73.7657 102.635C73.7294 102.532 73.7141 102.422 73.7206 102.312C73.7271 102.203 73.7554 102.096 73.8037 101.998C77.4035 94.3239 78.8318 85.6957 78.4126 79.3618C75.2768 78.3944 71.7249 76.2667 71.4908 73.0105C71.2604 69.8094 75.8145 66.5706 78.1667 71.4848C79.1356 73.5618 79.7411 75.7895 79.9567 78.0712C82.6591 78.6929 85.4712 78.6569 88.1568 77.9663C88.5364 74.7916 88.9483 71.4109 91.282 69.2344C93.8797 66.8103 96.5141 69.7311 96.0031 72.6606C95.4403 75.8864 92.7726 78.0696 89.6755 79.2047C88.7245 87.7883 88.6791 96.4481 89.5402 105.041C89.5611 105.259 89.4951 105.475 89.3566 105.644C89.2181 105.813 89.0184 105.92 88.8011 105.942C88.5839 105.963 88.3669 105.898 88.1977 105.76C88.0284 105.622 87.9207 105.423 87.898 105.206ZM73.1369 72.8923C73.3013 75.1778 76.0647 76.778 78.231 77.5616C77.9961 75.7034 77.4721 73.8934 76.678 72.1972C75.1498 69.003 73.0353 71.4799 73.1369 72.8923ZM92.4076 70.4411C90.6202 72.1087 90.2033 74.9173 89.8963 77.3444C92.1488 76.3449 93.9744 74.6859 94.3771 72.3767C94.5758 71.2389 93.8266 69.1179 92.4076 70.4411Z" fill="#7E11FE"/>
<path d="M87.596 7.81172C87.1934 5.05326 85.0492 5.21962 84.663 8.01505C83.804 14.2383 83.4834 20.5241 83.7048 26.8024C83.7998 29.4979 85.7172 29.4308 86.6365 27.2731C88.5655 22.7464 88.3615 13.0534 87.596 7.81172ZM116.992 38.9038C115.037 40.8912 116.465 42.4993 118.925 41.1186C124.404 38.0439 129.607 34.5023 134.477 30.5333C136.567 28.8294 135.356 27.3418 133.08 27.9125C128.308 29.1097 120.707 35.1277 116.992 38.9038ZM122.155 64.6399C119.386 64.9601 119.488 67.1083 122.271 67.5776C128.466 68.6222 134.739 69.1304 141.021 69.0967C143.718 69.0818 143.709 67.1637 141.579 66.1801C137.112 64.1171 127.417 64.0313 122.155 64.6399ZM125.188 90.9624C122.567 88.6003 119.72 86.5031 116.687 84.7011C114.29 83.2772 113.069 85.048 114.998 87.1077C119.292 91.6934 123.974 95.9001 128.991 99.6811C129.618 100.154 130.469 100.634 131.132 100.213C131.915 99.718 131.636 98.5179 131.203 97.6996C129.797 95.0441 127.483 93.0313 125.188 90.9624ZM50.9769 27.2814C53.8962 29.2617 56.6128 31.5257 59.0869 34.0404C61.0423 36.0275 59.614 37.6359 57.1533 36.2552C51.6748 33.1804 46.4717 29.6387 41.602 25.6696C39.5116 23.9657 40.723 22.4784 42.9982 23.0491C45.9125 23.7802 48.4197 25.5471 50.9769 27.2814ZM37.6978 58.3698C41.2135 58.0792 44.7493 58.1368 48.2537 58.5418C49.0954 58.6391 50.1345 58.9418 50.255 59.7805C50.3986 60.778 49.1317 61.3121 48.1382 61.4798C41.9433 62.5243 35.6699 63.0325 29.3878 62.9988C26.6907 62.9839 26.7003 61.0659 28.8299 60.0822C31.5574 58.8223 34.6185 58.6243 37.6978 58.3698ZM41.1448 86.6991C43.765 84.3371 46.6123 82.2398 49.645 80.4378C50.3738 80.0051 51.3835 79.6159 51.9879 80.2101C52.7065 80.9164 52.0225 82.109 51.334 82.8447C47.0399 87.4303 42.3582 91.6369 37.341 95.4178C36.7138 95.8904 35.8632 96.3707 35.1998 95.9502C34.4175 95.4547 34.6964 94.2546 35.1295 93.4363C36.5356 90.7808 38.8501 88.7683 41.1448 86.6994V86.6991Z" fill="#FCD8BE"/>
<path d="M96.5269 99.6722C87.8742 98.444 79.0911 98.4478 70.4395 99.6837C71.1148 105.754 68.5732 115.565 74.7938 120.115C77.4741 122.075 81.0366 122.194 84.3572 122.199C88.5548 122.206 90.8657 121.72 93.2861 117.91C96.6249 112.654 96.8622 106.065 96.5265 99.6722H96.5269Z" fill="#776CFF"/>
<path d="M50.4605 103.498C45.3413 98.2903 36.3021 98.934 31.3417 105.456C24.5167 114.429 34.9901 125.741 44.8845 122.948C50.8463 121.266 54.8825 115.381 54.499 111.449C54.3267 109.686 52.6766 105.752 50.4605 103.498Z" fill="#FCD8BE"/>
<path d="M41.8378 118.878L41.7279 117.625C40.5323 117.601 39.3648 117.257 38.3472 116.629C38.2453 116.564 38.1571 116.48 38.0878 116.382C38.0185 116.283 37.9695 116.171 37.9436 116.054C37.9177 115.936 37.9154 115.814 37.9369 115.695C37.9583 115.577 38.0031 115.463 38.0687 115.362C38.1017 115.337 38.506 114.476 39.2853 114.958C39.9698 115.403 40.7515 115.675 41.5638 115.753L41.2717 112.422C39.0503 112.061 37.6283 111.424 37.4395 109.271C37.2596 107.219 38.6443 105.791 40.665 105.501L40.5898 104.643L41.6262 104.552L41.7028 105.428C42.6053 105.421 43.4988 105.607 44.323 105.975C44.4356 106.027 44.5362 106.102 44.6188 106.195C44.7014 106.287 44.7641 106.396 44.8031 106.514C44.8421 106.632 44.8565 106.756 44.8454 106.88C44.8344 107.003 44.7981 107.123 44.7389 107.232C44.7059 107.263 44.3989 108.095 43.6077 107.737C43.059 107.486 42.469 107.338 41.8669 107.299L42.1497 110.528L42.1983 110.524C44.4593 110.881 45.9278 111.571 46.1189 113.753C46.3031 115.853 44.8603 117.257 42.7653 117.551L42.8739 118.787L41.8378 118.878ZM39.3962 108.892C39.4787 109.833 40.1396 110.077 41.0866 110.309L40.8261 107.339C39.7653 107.534 39.3362 108.206 39.3962 108.892ZM44.1586 114.089C44.0718 113.101 43.3334 112.847 42.3333 112.623L42.6043 115.714C43.4998 115.535 44.2372 114.987 44.1586 114.089Z" fill="#7E11FE"/>
<path d="M118.073 123.968C112.954 118.76 103.915 119.404 98.9538 125.926C95.4447 130.54 96.0656 135.057 99.8427 139.393C106.141 146.623 115.761 144.503 120.408 137.505C123.059 133.513 122.255 131.097 120.755 127.967C120.114 126.481 119.204 125.125 118.073 123.968Z" fill="#FCD8BE"/>
<path d="M109.447 139.349L109.337 138.095C108.142 138.071 106.974 137.727 105.957 137.099C105.855 137.035 105.766 136.951 105.697 136.852C105.628 136.753 105.579 136.642 105.553 136.524C105.527 136.406 105.524 136.284 105.546 136.166C105.567 136.047 105.612 135.934 105.678 135.832C105.711 135.807 106.115 134.947 106.894 135.429C107.579 135.873 108.361 136.146 109.173 136.223L108.881 132.892C106.66 132.532 105.238 131.894 105.049 129.741C104.869 127.689 106.254 126.261 108.274 125.972L108.199 125.114L109.236 125.022L109.312 125.898C110.215 125.891 111.108 126.078 111.932 126.446C112.045 126.498 112.146 126.573 112.228 126.665C112.311 126.758 112.373 126.866 112.412 126.984C112.451 127.102 112.466 127.227 112.455 127.35C112.444 127.474 112.407 127.594 112.348 127.703C112.315 127.733 112.008 128.566 111.217 128.207C110.668 127.956 110.078 127.808 109.476 127.77L109.759 130.998L109.808 130.994C115.639 131.915 114.445 137.451 110.375 138.021L110.483 139.258L109.447 139.349ZM107.006 129.362C107.088 130.303 107.749 130.547 108.696 130.78L108.436 127.809C107.375 128.004 106.946 128.676 107.006 129.362ZM111.768 134.559C111.681 133.571 110.943 133.317 109.943 133.093L110.214 136.184C111.109 136.005 111.847 135.458 111.768 134.56V134.559Z" fill="#7E11FE"/>
<path d="M138.87 108.532C139.445 107.553 140.292 106.761 141.307 106.252C142.322 105.744 143.463 105.54 144.592 105.665C145.721 105.791 146.789 106.24 147.668 106.959C148.547 107.679 149.198 108.637 149.545 109.718C150.297 108.057 151.932 106.908 153.687 106.414C154.888 106.076 156.248 106.031 157.312 106.682C158.776 107.578 159.248 109.642 158.615 111.237C157.981 112.833 156.457 113.951 154.627 114.859C155.314 116.041 156.422 116.913 157.272 117.985C158.122 119.056 158.717 120.535 158.149 121.78C157.507 123.189 153.88 125.466 152.462 126.239C152.572 124.782 152.627 123.151 151.662 122.055C150.753 121.021 149.118 120.823 147.865 121.391C146.611 121.958 145.727 123.164 145.287 124.468C145.033 125.134 144.965 125.857 145.091 126.559C145.397 127.934 146.829 128.898 148.308 128.941C146.879 130.215 145.4 131.43 143.872 132.586C142.91 133.313 142.331 133.568 141.076 133.188C138.521 132.414 136.779 130.117 135.028 127.386C135.94 127.02 136.947 126.873 137.786 126.361C138.541 125.866 139.091 125.116 139.335 124.248C139.579 123.38 139.501 122.453 139.116 121.638C137.904 119.279 133.158 117.957 131.439 124.355C129.813 122.491 127.45 118.984 127.342 118.061C127.195 116.808 128.71 116.012 132.757 112.823C131.122 111.381 130.027 109.048 130.769 106.998C131.099 106.154 131.702 105.443 132.481 104.979C133.26 104.516 134.172 104.325 135.071 104.437C136.859 104.706 138.341 106.346 138.87 108.532Z" fill="#EC7183"/>
<path d="M59.0742 132.9C57.9778 133.196 56.9907 133.804 56.232 134.649C55.4733 135.494 54.9755 136.54 54.7986 137.662C54.6217 138.784 54.7733 139.933 55.2352 140.971C55.6971 142.008 56.4494 142.89 57.4014 143.509C55.6005 143.797 54.061 145.07 53.1209 146.633C50.8665 150.381 53.6953 152.967 56.4725 152.658C58.178 152.469 59.6591 151.293 61.0184 149.768C61.9772 150.743 62.5262 152.042 63.3349 153.144C64.1435 154.247 65.4137 155.211 66.7634 154.992C68.2926 154.744 71.4468 151.847 72.5661 150.683C71.1323 150.404 69.5446 150.027 68.7415 148.807C67.9847 147.658 68.2246 146.029 69.1033 144.969C70.5352 143.242 73.4181 142.918 74.8203 143.658C76.0656 144.316 76.6179 145.952 76.2693 147.39C77.875 146.348 79.4371 145.242 80.9554 144.073C81.9103 143.338 82.3094 142.847 82.2737 141.535C82.2011 138.867 80.4461 136.58 78.2742 134.171C77.68 134.954 77.2724 135.886 76.5568 136.56C75.8947 137.185 75.0207 137.536 74.1102 137.543C73.1998 137.55 72.3206 137.212 71.6492 136.597C70.9779 135.982 70.5642 135.136 70.4913 134.228C70.4184 133.321 70.6918 132.419 71.2564 131.705C72.4001 130.257 74.4621 129.9 76.2977 129.909C75.06 128.045 73.6149 126.328 71.9902 124.791C71.3036 124.141 70.6979 123.856 69.2456 124.849C67.853 125.801 66.5409 126.87 64.8271 128.136C63.8673 126.178 61.9063 124.507 59.733 124.681C58.8313 124.777 57.9873 125.171 57.3343 125.8C56.6813 126.429 56.2567 127.258 56.1276 128.155C55.915 129.95 57.1053 131.812 59.0742 132.9Z" fill="#F88CA3"/>
</svg>
