<svg width="214" height="201" viewBox="0 0 214 201" fill="none" xmlns="http://www.w3.org/2000/svg">
<path d="M106.101 42.5274L162.657 41.2378C163.15 41.2262 163.639 41.3171 164.095 41.5048C164.551 41.6925 164.963 41.9729 165.305 42.3284C165.647 42.6838 165.912 43.1065 166.083 43.5698C166.254 44.0331 166.327 44.5268 166.298 45.0199L164.361 78.0288C164.309 78.913 163.931 79.7463 163.301 80.3673C162.671 80.9883 161.833 81.3526 160.951 81.3896L106.99 83.6456C106.516 83.6653 106.042 83.5898 105.597 83.4235C105.152 83.2572 104.745 83.0035 104.399 82.6773C104.053 82.3511 103.776 81.9589 103.583 81.5237C103.391 81.0886 103.287 80.6193 103.278 80.1434L102.616 46.1652C102.599 45.2201 102.956 44.3068 103.609 43.625C104.262 42.9432 105.158 42.5486 106.101 42.5274Z" fill="#F16789"/>
<path d="M114.929 77.4198L125.071 76.8717L124.346 66.0159H114.693L114.929 77.4198Z" fill="#F8A8DF"/>
<path d="M134.463 62.4475H142.935V77.146H134.463V62.4475Z" fill="#A369F7"/>
<path d="M150.66 58.394L150.539 77.1458H158.502L158.744 58.394H150.66Z" fill="#7D11FE"/>
<path d="M89.0051 78.4758L67.7461 85.3765V106.849L69.8556 158.387C68.8109 161.211 68.3044 161.61 68.5663 162.495L69.7174 166.43C69.8089 166.747 69.9967 167.027 70.2547 167.231C70.5127 167.436 70.828 167.554 71.1564 167.57C77.9453 167.878 113.407 169.231 123.793 164.558L121.304 113.019L134.473 104.48L121.983 86.2217C120.346 84.3578 118.256 82.9505 115.916 82.1368C112.115 80.8674 98.5395 79.5692 98.5395 79.5692L89.0051 78.4758Z" fill="#7600FF"/>
<path d="M86.7851 66.6506L84.8828 81.3376C84.8828 81.3376 88.4744 87.1449 94.7799 87.0554C101.085 86.966 101.267 80.5212 101.267 80.5212L100.634 71.7078L86.7851 66.6506Z" fill="#FFAD92"/>
<path d="M111.226 49.7945C111.226 49.7945 114.032 48.6406 113.548 46.1769C113.065 43.7132 110.653 43.8171 110.653 43.8171C110.653 43.8171 105.723 32.8083 96.088 34.0084C86.4528 35.2086 82.8353 42.6631 82.8353 42.6631C82.8353 42.6631 78.2479 45.5653 79.2005 50.5302C79.75 53.4477 80.8352 56.2375 82.4007 58.7579L86.3952 63.3535H93.9986L111.226 49.7945Z" fill="#1D1D3D"/>
<path d="M111.222 49.7943C111.222 49.7943 110.137 69.6452 104.89 72.5503C99.644 75.4554 89.2318 72.0945 86.7885 66.6507C86.7885 66.6507 81.2658 66.3189 80.9665 60.5117C80.6672 54.7044 86.3367 56.9431 86.8777 57.7277C87.4187 58.5124 88.1469 61.3598 88.1469 61.3598L89.7153 61.2386L90.9211 54.0264V49.5029C90.9211 49.5029 93.3961 51.7214 96.6079 49.7914C96.6079 49.7914 99.8685 51.3118 101.679 49.7914C101.679 49.7914 104.936 51.9003 107.291 49.7914C107.285 49.7943 108.281 51.857 111.222 49.7943Z" fill="#FFAD92"/>
<path d="M94.588 65.0843C94.5595 65.0593 94.5361 65.0289 94.5193 64.9948C94.5025 64.9608 94.4926 64.9237 94.49 64.8858C94.4875 64.8479 94.4924 64.8099 94.5045 64.7739C94.5167 64.7379 94.5357 64.7046 94.5607 64.676C94.5856 64.6474 94.6159 64.624 94.6499 64.6072C94.6839 64.5903 94.7208 64.5803 94.7586 64.5778C94.7964 64.5753 94.8344 64.5802 94.8703 64.5924C94.9062 64.6045 94.9394 64.6236 94.9679 64.6486C95.0111 64.6861 99.1898 68.3009 103.602 67.6662C103.678 67.6551 103.755 67.6749 103.817 67.7211C103.879 67.7674 103.92 67.8364 103.931 67.9129C103.942 67.9894 103.922 68.0672 103.876 68.1291C103.83 68.1911 103.761 68.2321 103.685 68.2432C100.413 68.7077 96.732 66.9681 94.588 65.0843ZM99.8718 73.8658C92.5131 73.8658 87.8825 68.8317 87.8279 68.774C87.8025 68.7458 87.783 68.7129 87.7704 68.6771C87.7578 68.6413 87.7523 68.6033 87.7543 68.5654C87.7563 68.5275 87.7657 68.4904 87.7821 68.4561C87.7984 68.4219 87.8213 68.3912 87.8494 68.3658C87.9063 68.3146 87.9812 68.288 88.0575 68.2921C88.0953 68.2941 88.1324 68.3036 88.1665 68.3199C88.2007 68.3363 88.2313 68.3592 88.2567 68.3874C88.3142 68.4509 94.1477 74.7775 103.084 72.96C103.121 72.9524 103.16 72.9524 103.198 72.9599C103.236 72.9674 103.272 72.9823 103.304 73.0037C103.336 73.0251 103.364 73.0527 103.385 73.0848C103.406 73.1169 103.421 73.1529 103.429 73.1908C103.436 73.2287 103.436 73.2677 103.429 73.3056C103.422 73.3435 103.407 73.3795 103.385 73.4117C103.364 73.4438 103.336 73.4714 103.304 73.4929C103.272 73.5144 103.236 73.5294 103.199 73.537C102.104 73.7582 100.989 73.8684 99.8718 73.8658Z" fill="#ED6C4D"/>
<path d="M56.5422 50.0599C52.3203 53.291 51.6872 59.58 55.1263 64.0833C56.1541 65.4633 57.5067 66.5667 59.0634 67.2951C60.6201 68.0235 62.3325 68.3542 64.0477 68.2578C65.7371 68.2895 67.1846 70.1358 67.1846 70.1358L72.6526 65.9527C71.559 64.5564 72.0771 62.1043 72.0771 62.1043C75.3118 52.8034 64.2348 44.1776 56.5422 50.0599Z" fill="#7D11FE"/>
<path d="M67.1855 70.1387L69.8131 73.5862C70.087 73.9458 70.4289 74.2477 70.8193 74.4748C71.2097 74.7019 71.6409 74.8497 72.0883 74.9097C72.5357 74.9697 72.9905 74.9408 73.4267 74.8246C73.8629 74.7084 74.272 74.5071 74.6306 74.2324C74.9893 73.958 75.2905 73.6155 75.517 73.2244C75.7435 72.8333 75.8909 72.4013 75.9508 71.9531C76.0106 71.5049 75.9818 71.0492 75.8659 70.6121C75.75 70.1751 75.5493 69.7652 75.2753 69.406L72.6478 65.9441L67.1855 70.1387Z" fill="#FCD8BE"/>
<path d="M85.5279 76.3613L93.0737 82.8927L90.0404 90.0617L83.332 80.3165L85.5279 76.3613ZM101.068 77.8009L97.7359 82.8033L101.068 88.5182L102.545 79.9876L101.068 77.8009Z" fill="#9C4AFE"/>
<path d="M93.0759 82.8929L97.738 82.8035L99.0734 85.0912L97.4963 88.2155L103.652 131.163L98.3625 137.879L92.0053 131.526L93.0759 88.5184L91.5938 86.398L93.0759 82.8929Z" fill="#FF605B"/>
<path d="M170.507 164.509C148.365 164.22 141.625 168.236 134.859 167.809C131.607 167.61 128.493 166.413 125.252 166.018C116.846 164.988 108.086 169.358 100.068 166.566C97.6131 165.7 95.4346 164.22 93.3539 162.662C88.5622 159.085 88.4068 156.922 89.4975 150.575C93.3424 128.278 85.9634 117.344 92.3524 106.205C93.1553 104.803 94.2 103.485 95.6245 102.726C97.9758 101.491 94.931 101.988 167.46 99.5527C163.954 108.784 167.074 119.897 167.831 130.467C168.663 141.88 166.685 153.748 170.507 164.509Z" fill="#FCD8BE"/>
<path d="M102.547 106.041C96.7254 107.21 92.6877 111.981 89.6515 117.07C89.7695 113.236 90.443 109.541 92.3539 106.211C93.1568 104.809 94.2015 103.491 95.626 102.732C95.7987 103.549 96.6016 103.97 97.3528 104.29C99.0397 104.999 100.776 105.584 102.547 106.041ZM106.021 167.515C100.691 167.475 97.606 165.845 93.3583 162.663C90.9984 160.9 89.3119 159.348 89.0098 156.405C89.7192 157.499 90.6427 158.436 91.7243 159.161C92.806 159.886 94.0232 160.383 95.3022 160.623C96.5812 160.862 97.8954 160.838 99.165 160.553C100.435 160.268 101.633 159.728 102.688 158.964C101.621 163.439 101.914 165.767 106.021 167.515Z" fill="#EFBC96"/>
<path d="M129.87 150.944C139.085 150.944 146.556 143.456 146.556 134.218C146.556 124.98 139.085 117.491 129.87 117.491C120.654 117.491 113.184 124.98 113.184 134.218C113.184 143.456 120.654 150.944 129.87 150.944Z" fill="#BD74EC"/>
<path d="M115.235 106.182L114.308 109.428L112.225 110.986L108.912 111.416L114.573 116.404H117.649L118.855 113.138L115.235 106.182Z" fill="#BD74EC"/>
<path d="M130.426 133.568L114.309 109.428C112.761 108.897 112.111 109.471 112.226 110.986L129.387 134.183C130.011 134.316 130.31 134.059 130.426 133.568Z" fill="#7D11FE"/>
<path d="M168.41 121.123L162.738 122.392C162.738 122.392 156.642 121.426 158.513 124.51C158.513 124.51 155.923 124.146 156.041 125.9C156.159 127.654 158.271 128.139 158.271 128.139C158.271 128.139 157.368 128.805 157.489 129.469C157.609 130.133 160.323 130.802 160.323 130.802C160.195 131.227 160.237 131.686 160.44 132.081C160.643 132.476 160.991 132.777 161.411 132.919C162.98 133.583 166.902 133.946 166.902 133.946C166.902 133.946 170.396 133.28 170.52 131.829L170.643 130.386C170.643 130.386 171.248 128.079 170.22 127.302C170.22 127.302 171.066 124.882 169.858 124.216C169.849 124.207 169.723 121.668 168.41 121.123Z" fill="#FFAD92"/>
<path d="M158.441 124.793C158.365 124.777 158.297 124.732 158.254 124.667C158.211 124.603 158.195 124.523 158.211 124.447C158.226 124.37 158.271 124.303 158.336 124.259C158.4 124.216 158.48 124.2 158.556 124.216C162.585 125.029 164.067 125.029 167.961 123.976C168.035 123.957 168.114 123.968 168.18 124.006C168.246 124.045 168.294 124.108 168.313 124.183C168.333 124.257 168.322 124.336 168.284 124.402C168.245 124.468 168.182 124.516 168.108 124.536C163.966 125.644 162.628 125.65 158.441 124.793ZM158.228 128.428C158.152 128.42 158.082 128.382 158.033 128.322C157.985 128.262 157.962 128.185 157.97 128.109C157.978 128.032 158.016 127.962 158.076 127.914C158.136 127.865 158.212 127.843 158.288 127.851L164.116 128.451L168.013 128.162C168.089 128.157 168.165 128.181 168.223 128.231C168.281 128.282 168.316 128.353 168.322 128.429C168.328 128.506 168.303 128.581 168.253 128.639C168.203 128.698 168.132 128.734 168.056 128.739L164.133 129.042C164.093 129.036 164.444 129.068 158.228 128.428ZM164.85 131.823C160.671 131.05 159.94 131.301 160.027 130.767C160.113 130.234 160.789 130.707 164.902 131.246L168.001 130.888C168.039 130.884 168.077 130.887 168.114 130.898C168.15 130.908 168.185 130.926 168.214 130.95C168.244 130.973 168.269 131.003 168.288 131.036C168.306 131.069 168.318 131.106 168.322 131.144C168.326 131.182 168.323 131.22 168.313 131.257C168.302 131.293 168.285 131.328 168.261 131.358C168.238 131.387 168.208 131.412 168.175 131.431C168.142 131.449 168.105 131.461 168.067 131.465C164.738 131.823 164.919 131.823 164.85 131.823Z" fill="#ED6C4D"/>
<path d="M67.7445 85.3765C67.7445 85.3765 62.5643 86.3429 55.8071 100.378C49.0498 114.413 34.3006 141.023 44.4509 145.5C54.6012 149.978 82.4678 132.314 82.4678 132.314C82.4678 132.314 81.5613 124.449 79.3885 122.635L64.6048 125.779L71.1376 113.138C71.1376 113.138 74.3205 89.3057 67.7445 85.3765Z" fill="#7600FF"/>
<path d="M55.1037 128.428C55.0274 128.437 54.9505 128.415 54.8901 128.368C54.8296 128.32 54.7905 128.251 54.7814 128.174C54.7722 128.097 54.7937 128.02 54.8412 127.96C54.8887 127.899 54.9583 127.86 55.0346 127.851L64.5317 125.491L79.3269 122.344C79.4032 122.328 79.4826 122.343 79.5477 122.386C79.6127 122.429 79.658 122.496 79.6737 122.573C79.6893 122.65 79.674 122.729 79.6311 122.794C79.5882 122.859 79.5212 122.905 79.4449 122.921L64.6669 126.054L55.1699 128.411C55.1486 128.419 55.1264 128.425 55.1037 128.428Z" fill="#7D11FE"/>
<path d="M64.6069 126.068C64.5608 126.068 64.5154 126.057 64.4745 126.036C64.4408 126.019 64.4109 125.995 64.3864 125.966C64.3619 125.937 64.3434 125.904 64.3319 125.867C64.3204 125.831 64.3162 125.793 64.3194 125.755C64.3226 125.717 64.3333 125.681 64.3507 125.647L70.8692 113.005C70.8943 112.958 70.931 112.919 70.9756 112.89L73.3902 111.447C73.4551 111.418 73.5286 111.414 73.5965 111.436C73.6643 111.457 73.7217 111.504 73.7575 111.565C73.7933 111.627 73.805 111.7 73.7903 111.77C73.7756 111.84 73.7356 111.902 73.678 111.944L71.3354 113.352L64.8544 125.921C64.8296 125.965 64.7937 126.002 64.7503 126.028C64.7068 126.054 64.6574 126.067 64.6069 126.068Z" fill="#7D11FE"/>
<path d="M82.4719 132.314L88.7889 131.327C89.6688 131.19 90.4881 130.793 91.1429 130.188C91.7978 129.583 92.2585 128.797 92.4668 127.929L93.6957 122.808L100.05 121.464C100.267 121.419 100.461 121.3 100.601 121.127C100.74 120.955 100.816 120.74 100.816 120.518C100.816 120.39 100.791 120.264 100.742 120.147C100.693 120.03 100.622 119.923 100.532 119.833C100.442 119.743 100.336 119.672 100.218 119.624C100.101 119.575 99.9755 119.551 99.8486 119.551H90.1041L89.399 117.846C89.0609 117.602 88.6751 117.432 88.267 117.348C87.8588 117.263 87.4375 117.266 87.0305 117.356L85.4102 117.711C83.0648 118.224 82.3597 119.866 79.3926 122.635L82.4719 132.314Z" fill="#FFAD92"/>
<path d="M90.337 129.628C89.5974 129.564 90.8694 128.269 88.947 120.803C88.9275 120.729 88.9383 120.65 88.9769 120.584C89.0154 120.517 89.0787 120.469 89.1528 120.45C89.2268 120.43 89.3055 120.441 89.3716 120.48C89.4378 120.518 89.4858 120.582 89.5053 120.656C89.5629 120.878 90.927 126.137 90.6565 129.365C90.6532 129.404 90.6423 129.441 90.6244 129.476C90.6065 129.51 90.5819 129.54 90.5521 129.564C90.5223 129.589 90.4879 129.607 90.451 129.618C90.414 129.629 90.3753 129.632 90.337 129.628Z" fill="#ED6C4D"/>
<path d="M55.705 145.339C55.6287 145.351 55.5507 145.332 55.4884 145.286C55.4261 145.24 55.3844 145.172 55.3726 145.095C55.3607 145.019 55.3797 144.941 55.4253 144.878C55.4709 144.816 55.5394 144.774 55.6158 144.762C64.6074 141.763 73.2166 137.715 81.2664 132.703C81.33 132.668 81.4044 132.658 81.4748 132.676C81.5452 132.694 81.6063 132.737 81.646 132.798C81.6856 132.859 81.7009 132.933 81.6887 133.005C81.6764 133.076 81.6377 133.141 81.5801 133.185C73.4874 138.221 64.8329 142.288 55.7942 145.301C55.7665 145.318 55.7364 145.331 55.705 145.339Z" fill="#7D11FE"/>
</svg>
