<svg width="106" height="106" viewBox="0 0 106 106" fill="none" xmlns="http://www.w3.org/2000/svg">
<g clip-path="url(#clip0_195_19095)">
<path d="M11.7076 40.8101V58.9688L0.751465 50.025C1.30431 48.8534 2.14036 47.8381 3.18408 47.0707L11.7076 40.8101ZM92.4311 47.0707C93.4748 47.8381 94.3109 48.8534 94.8637 50.025L83.9076 58.9688V40.8101L92.4311 47.0707Z" fill="#D79235"/>
<path d="M72.2541 67.7551L72.6143 68.1961L59.1407 79.1936L52.7559 84.4087C51.3615 85.5457 49.6174 86.1667 47.8182 86.1667C46.019 86.1667 44.2749 85.5457 42.8805 84.4087L36.4957 79.1936L23.0117 68.1961L23.372 67.7551H72.2541Z" fill="#F1F2F4"/>
<path d="M83.9076 58.9686L72.6037 68.196L72.2538 67.7551H23.3717L23.0114 68.196L11.7075 58.9686V18.1835C11.7075 16.1135 12.5298 14.1282 13.9936 12.6645C15.4573 11.2007 17.4426 10.3784 19.5126 10.3784H76.1025C78.1726 10.3784 80.1578 11.2007 81.6215 12.6645C83.0853 14.1282 83.9076 16.1135 83.9076 18.1835V58.9686Z" fill="#F1F2F4"/>
<path d="M92.957 104.052C91.5336 105.309 89.699 106.002 87.7998 105.998H7.80502C5.90601 106.001 4.07162 105.309 2.64787 104.052L36.4851 79.1936L42.8699 84.4088C44.2643 85.5458 46.0084 86.1667 47.8076 86.1667C49.6068 86.1667 51.3509 85.5458 52.7453 84.4088L59.1301 79.1936L92.957 104.052ZM11.7076 40.8101V58.9688L0.751465 50.025C1.30431 48.8534 2.14036 47.8381 3.18408 47.0707L11.7076 40.8101ZM92.4311 47.0707C93.4748 47.8381 94.3109 48.8534 94.8637 50.025L83.9076 58.9688V40.8101L92.4311 47.0707Z" fill="#D79235"/>
<path d="M72.2541 67.7551L72.6143 68.1961L59.1407 79.1936L52.7559 84.4087C51.3615 85.5457 49.6174 86.1667 47.8182 86.1667C46.019 86.1667 44.2749 85.5457 42.8805 84.4087L36.4957 79.1936L23.0117 68.1961L23.372 67.7551H72.2541Z" fill="#F1F2F4"/>
<path d="M83.9076 58.9686L72.6037 68.196L72.2538 67.7551H23.3717L23.0114 68.196L11.7075 58.9686V18.1835C11.7075 16.1135 12.5298 14.1282 13.9936 12.6645C15.4573 11.2007 17.4426 10.3784 19.5126 10.3784H76.1025C78.1726 10.3784 80.1578 11.2007 81.6215 12.6645C83.0853 14.1282 83.9076 16.1135 83.9076 18.1835V58.9686Z" fill="#F1F2F4"/>
<path d="M92.9571 104.052C91.5337 105.309 89.6991 106.001 87.7999 105.998H7.8051C5.90609 106.001 4.0717 105.309 2.64795 104.052L36.4851 79.1936L42.87 84.4087C44.2644 85.5457 46.0085 86.1667 47.8077 86.1667C49.6069 86.1667 51.351 85.5457 52.7454 84.4087L59.1302 79.1936L92.9571 104.052Z" fill="#D79235"/>
<path d="M72.2539 34.8102H23.3717C22.8106 34.8102 22.2724 34.5873 21.8756 34.1905C21.4788 33.7937 21.2559 33.2555 21.2559 32.6944C21.2559 32.1332 21.4788 31.595 21.8756 31.1982C22.2724 30.8014 22.8106 30.5785 23.3717 30.5785H72.2539C72.815 30.5785 73.3532 30.8014 73.75 31.1982C74.1468 31.595 74.3697 32.1332 74.3697 32.6944C74.3697 33.2555 74.1468 33.7937 73.75 34.1905C73.3532 34.5873 72.815 34.8102 72.2539 34.8102ZM72.2539 46.4971H23.3717C22.8106 46.4971 22.2724 46.2742 21.8756 45.8774C21.4788 45.4806 21.2559 44.9424 21.2559 44.3813C21.2559 43.8201 21.4788 43.2819 21.8756 42.8851C22.2724 42.4883 22.8106 42.2654 23.3717 42.2654H72.2539C72.815 42.2654 73.3532 42.4883 73.75 42.8851C74.1468 43.2819 74.3697 43.8201 74.3697 44.3813C74.3697 44.9424 74.1468 45.4806 73.75 45.8774C73.3532 46.2742 72.815 46.4971 72.2539 46.4971ZM72.2539 58.1758H23.3717C22.8106 58.1758 22.2724 57.9528 21.8756 57.556C21.4788 57.1592 21.2559 56.6211 21.2559 56.0599C21.2559 55.4987 21.4788 54.9606 21.8756 54.5638C22.2724 54.167 22.8106 53.944 23.3717 53.944H72.2539C72.815 53.944 73.3532 54.167 73.75 54.5638C74.1468 54.9606 74.3697 55.4987 74.3697 56.0599C74.3697 56.6211 74.1468 57.1592 73.75 57.556C73.3532 57.9528 72.815 58.1758 72.2539 58.1758ZM72.2539 69.871H23.3717C22.8217 69.8538 22.3001 69.6232 21.9171 69.2281C21.5341 68.833 21.32 68.3043 21.32 67.7541C21.32 67.2038 21.5341 66.6752 21.9171 66.2801C22.3001 65.8849 22.8217 65.6544 23.3717 65.6372H72.2539C72.8038 65.6544 73.3255 65.8849 73.7085 66.2801C74.0914 66.6752 74.3056 67.2038 74.3056 67.7541C74.3056 68.3043 74.0914 68.833 73.7085 69.2281C73.3255 69.6232 72.8038 69.8538 72.2539 69.871Z" fill="#666666"/>
<path d="M36.4851 79.1935L2.65 104.052C1.817 103.32 1.14971 102.419 0.692723 101.409C0.235733 100.399 -0.000434783 99.3035 6.00889e-07 98.1949V53.3622C1.70713e-05 52.2078 0.256719 51.0679 0.751524 50.0249L11.7076 58.9686L23.0115 68.196L36.4851 79.1935ZM95.6153 53.3622V98.1949C95.6154 99.3045 95.3783 100.401 94.9198 101.412C94.4613 102.422 93.7921 103.323 92.957 104.054L59.1302 79.1935L72.6038 68.196L83.9077 58.9686L94.8638 50.0249C95.3586 51.0679 95.6153 52.2078 95.6153 53.3622Z" fill="#F6BD6E"/>
<path d="M95.6155 53.3622V98.1949C95.6156 99.3045 95.3785 100.401 94.92 101.412C94.4615 102.422 93.7923 103.323 92.9572 104.054L59.1304 79.1935L72.604 68.196L83.9079 58.9686L94.864 50.0249C95.3588 51.0679 95.6155 52.2078 95.6155 53.3622Z" fill="#F6BD6E"/>
<path d="M82 46C94.7025 46 105 35.7025 105 23C105 10.2975 94.7025 0 82 0C69.2975 0 59 10.2975 59 23C59 35.7025 69.2975 46 82 46Z" fill="#08AD36"/>
<path d="M78.8789 32.9179C78.4129 32.9173 77.9662 32.7319 77.6367 32.4024L69.5625 24.351C69.2733 24.014 69.1221 23.5802 69.139 23.1365C69.1559 22.6928 69.3397 22.2718 69.6537 21.9579C69.9677 21.6439 70.3887 21.46 70.8324 21.4431C71.2761 21.4262 71.7098 21.5774 72.0468 21.8666L78.8789 28.6696L92.1289 15.4196C92.4659 15.1305 92.8996 14.9792 93.3433 14.9962C93.787 15.0131 94.208 15.1969 94.522 15.5109C94.836 15.8249 95.0198 16.2459 95.0367 16.6896C95.0536 17.1333 94.9024 17.567 94.6132 17.904L80.1211 32.3962C79.9585 32.5606 79.7651 32.6913 79.5519 32.7808C79.3388 32.8703 79.1101 32.9169 78.8789 32.9179Z" fill="#E8E8E8"/>
</g>
<defs>
<clipPath id="clip0_195_19095">
<rect width="106" height="106" fill="white"/>
</clipPath>
</defs>
</svg>
