<svg width="106" height="106" viewBox="0 0 106 106" fill="none" xmlns="http://www.w3.org/2000/svg">
<g clip-path="url(#clip0_678_75174)">
<path d="M11.708 40.8101V58.9688L0.751953 50.025C1.3048 48.8534 2.14085 47.8381 3.18457 47.0707L11.708 40.8101ZM92.4316 47.0707C93.4753 47.8381 94.3114 48.8534 94.8642 50.025L83.9081 58.9688V40.8101L92.4316 47.0707Z" fill="#D79235"/>
<path d="M72.2541 67.7549L72.6143 68.1959L59.1407 79.1934L52.7559 84.4085C51.3615 85.5455 49.6174 86.1664 47.8182 86.1664C46.019 86.1664 44.2749 85.5455 42.8805 84.4085L36.4957 79.1934L23.0117 68.1959L23.372 67.7549H72.2541Z" fill="#F1F2F4"/>
<path d="M83.9081 58.9686L72.6042 68.196L72.2543 67.7551H23.3721L23.0119 68.196L11.708 58.9686V18.1835C11.708 16.1135 12.5303 14.1282 13.9941 12.6645C15.4578 11.2007 17.4431 10.3784 19.5131 10.3784H76.103C78.173 10.3784 80.1583 11.2007 81.622 12.6645C83.0858 14.1282 83.9081 16.1135 83.9081 18.1835V58.9686Z" fill="#F1F2F4"/>
<path d="M92.9575 104.052C91.5341 105.309 89.6995 106.002 87.8003 105.998H7.80551C5.9065 106.001 4.07211 105.309 2.64836 104.052L36.4855 79.1936L42.8704 84.4088C44.2648 85.5458 46.0089 86.1667 47.8081 86.1667C49.6073 86.1667 51.3514 85.5458 52.7458 84.4088L59.1306 79.1936L92.9575 104.052ZM11.708 40.8101V58.9688L0.751953 50.025C1.3048 48.8534 2.14085 47.8381 3.18457 47.0707L11.708 40.8101ZM92.4316 47.0707C93.4753 47.8381 94.3114 48.8534 94.8642 50.025L83.9081 58.9688V40.8101L92.4316 47.0707Z" fill="#D79235"/>
<path d="M72.2541 67.7549L72.6143 68.1959L59.1407 79.1934L52.7559 84.4085C51.3615 85.5455 49.6174 86.1664 47.8182 86.1664C46.019 86.1664 44.2749 85.5455 42.8805 84.4085L36.4957 79.1934L23.0117 68.1959L23.372 67.7549H72.2541Z" fill="#F1F2F4"/>
<path d="M83.9081 58.9686L72.6042 68.196L72.2543 67.7551H23.3721L23.0119 68.196L11.708 58.9686V18.1835C11.708 16.1135 12.5303 14.1282 13.9941 12.6645C15.4578 11.2007 17.4431 10.3784 19.5131 10.3784H76.103C78.173 10.3784 80.1583 11.2007 81.622 12.6645C83.0858 14.1282 83.9081 16.1135 83.9081 18.1835V58.9686Z" fill="#F1F2F4"/>
<path d="M92.9566 104.052C91.5332 105.309 89.6986 106.001 87.7994 105.998H7.80461C5.9056 106 4.07121 105.308 2.64746 104.052L36.4846 79.1934L42.8695 84.4085C44.2639 85.5455 46.008 86.1664 47.8072 86.1664C49.6064 86.1664 51.3505 85.5455 52.7449 84.4085L59.1297 79.1934L92.9566 104.052Z" fill="#D79235"/>
<path d="M72.2539 34.8103H23.3717C22.8106 34.8103 22.2724 34.5874 21.8756 34.1906C21.4788 33.7938 21.2559 33.2556 21.2559 32.6945C21.2559 32.1333 21.4788 31.5951 21.8756 31.1983C22.2724 30.8015 22.8106 30.5786 23.3717 30.5786H72.2539C72.815 30.5786 73.3532 30.8015 73.75 31.1983C74.1468 31.5951 74.3697 32.1333 74.3697 32.6945C74.3697 33.2556 74.1468 33.7938 73.75 34.1906C73.3532 34.5874 72.815 34.8103 72.2539 34.8103ZM72.2539 46.4972H23.3717C22.8106 46.4972 22.2724 46.2743 21.8756 45.8775C21.4788 45.4807 21.2559 44.9425 21.2559 44.3814C21.2559 43.8202 21.4788 43.2821 21.8756 42.8853C22.2724 42.4885 22.8106 42.2655 23.3717 42.2655H72.2539C72.815 42.2655 73.3532 42.4885 73.75 42.8853C74.1468 43.2821 74.3697 43.8202 74.3697 44.3814C74.3697 44.9425 74.1468 45.4807 73.75 45.8775C73.3532 46.2743 72.815 46.4972 72.2539 46.4972ZM72.2539 58.1759H23.3717C22.8106 58.1759 22.2724 57.953 21.8756 57.5562C21.4788 57.1594 21.2559 56.6212 21.2559 56.06C21.2559 55.4989 21.4788 54.9607 21.8756 54.5639C22.2724 54.1671 22.8106 53.9442 23.3717 53.9442H72.2539C72.815 53.9442 73.3532 54.1671 73.75 54.5639C74.1468 54.9607 74.3697 55.4989 74.3697 56.06C74.3697 56.6212 74.1468 57.1594 73.75 57.5562C73.3532 57.953 72.815 58.1759 72.2539 58.1759ZM72.2539 69.8711H23.3717C22.8217 69.8539 22.3001 69.6233 21.9171 69.2282C21.5341 68.8331 21.32 68.3044 21.32 67.7542C21.32 67.2039 21.5341 66.6753 21.9171 66.2802C22.3001 65.8851 22.8217 65.6545 23.3717 65.6373H72.2539C72.8038 65.6545 73.3255 65.8851 73.7085 66.2802C74.0914 66.6753 74.3056 67.2039 74.3056 67.7542C74.3056 68.3044 74.0914 68.8331 73.7085 69.2282C73.3255 69.6233 72.8038 69.8539 72.2539 69.8711Z" fill="#666666"/>
<path d="M36.4851 79.1935L2.65 104.052C1.817 103.32 1.14971 102.419 0.692723 101.409C0.235733 100.399 -0.000434783 99.3035 6.00889e-07 98.1949V53.3622C1.70713e-05 52.2078 0.256719 51.0679 0.751524 50.0249L11.7076 58.9686L23.0115 68.196L36.4851 79.1935ZM95.6153 53.3622V98.1949C95.6154 99.3045 95.3783 100.401 94.9198 101.412C94.4613 102.422 93.7921 103.323 92.957 104.054L59.1302 79.1935L72.6038 68.196L83.9077 58.9686L94.8638 50.0249C95.3586 51.0679 95.6153 52.2078 95.6153 53.3622Z" fill="#F6BD6E"/>
<path d="M95.615 53.3622V98.1949C95.6151 99.3045 95.378 100.401 94.9195 101.412C94.461 102.422 93.7918 103.323 92.9567 104.054L59.1299 79.1935L72.6035 68.196L83.9074 58.9686L94.8635 50.0249C95.3583 51.0679 95.615 52.2078 95.615 53.3622Z" fill="#F6BD6E"/>
</g>
<defs>
<clipPath id="clip0_678_75174">
<rect width="106" height="106" fill="white"/>
</clipPath>
</defs>
</svg>
