<svg width="106" height="106" viewBox="0 0 106 106" fill="none" xmlns="http://www.w3.org/2000/svg">
<g clip-path="url(#clip0_153_17924)">
<path d="M12.2061 40.8099V58.9686L1.25 50.0249C1.80284 48.8533 2.6389 47.838 3.68262 47.0706L12.2061 40.8099ZM92.9296 47.0706C93.9734 47.838 94.8094 48.8533 95.3623 50.0249L84.4062 58.9686V40.8099L92.9296 47.0706Z" fill="#D79235"/>
<path d="M72.7502 67.755L73.1104 68.196L59.6368 79.1935L53.252 84.4086C51.8576 85.5456 50.1135 86.1666 48.3143 86.1666C46.5151 86.1666 44.771 85.5456 43.3766 84.4086L36.9918 79.1935L23.5078 68.196L23.868 67.755H72.7502Z" fill="#F1F2F4"/>
<path d="M84.411 58.9686L73.1071 68.196L72.7572 67.7551H23.8751L23.5148 68.196L12.2109 58.9686V18.1835C12.2109 16.1135 13.0333 14.1282 14.497 12.6645C15.9607 11.2007 17.946 10.3784 20.016 10.3784H76.6059C78.676 10.3784 80.6612 11.2007 82.125 12.6645C83.5887 14.1282 84.411 16.1135 84.411 18.1835V58.9686Z" fill="#F1F2F4"/>
<path d="M93.4555 104.052C92.0322 105.309 90.1975 106.001 88.2984 105.998H8.30356C6.40455 106.001 4.57016 105.308 3.14641 104.052L36.9836 79.1935L43.3684 84.4086C44.7628 85.5457 46.5069 86.1666 48.3061 86.1666C50.1053 86.1666 51.8494 85.5457 53.2438 84.4086L59.6287 79.1935L93.4555 104.052ZM12.2061 40.8099V58.9686L1.25 50.0249C1.80284 48.8533 2.6389 47.838 3.68262 47.0706L12.2061 40.8099ZM92.9296 47.0706C93.9734 47.838 94.8094 48.8533 95.3623 50.0249L84.4062 58.9686V40.8099L92.9296 47.0706Z" fill="#D79235"/>
<path d="M72.7502 67.755L73.1104 68.196L59.6368 79.1935L53.252 84.4086C51.8576 85.5456 50.1135 86.1666 48.3143 86.1666C46.5151 86.1666 44.771 85.5456 43.3766 84.4086L36.9918 79.1935L23.5078 68.196L23.868 67.755H72.7502Z" fill="#F1F2F4"/>
<path d="M84.411 58.9686L73.1071 68.196L72.7572 67.7551H23.8751L23.5148 68.196L12.2109 58.9686V18.1835C12.2109 16.1135 13.0333 14.1282 14.497 12.6645C15.9607 11.2007 17.946 10.3784 20.016 10.3784H76.6059C78.676 10.3784 80.6612 11.2007 82.125 12.6645C83.5887 14.1282 84.411 16.1135 84.411 18.1835V58.9686Z" fill="#F1F2F4"/>
<path d="M93.4575 104.052C92.0342 105.309 90.1995 106.001 88.3004 105.998H8.30559C6.40658 106.001 4.57219 105.308 3.14844 104.052L36.9856 79.1935L43.3705 84.4086C44.7649 85.5456 46.509 86.1666 48.3082 86.1666C50.1074 86.1666 51.8515 85.5456 53.2459 84.4086L59.6307 79.1935L93.4575 104.052Z" fill="#D79235"/>
<path d="M72.7558 34.8102H23.8737C23.3125 34.8102 22.7743 34.5873 22.3775 34.1905C21.9807 33.7937 21.7578 33.2555 21.7578 32.6944C21.7578 32.1332 21.9807 31.595 22.3775 31.1982C22.7743 30.8014 23.3125 30.5785 23.8737 30.5785H72.7558C73.317 30.5785 73.8552 30.8014 74.252 31.1982C74.6488 31.595 74.8717 32.1332 74.8717 32.6944C74.8717 33.2555 74.6488 33.7937 74.252 34.1905C73.8552 34.5873 73.317 34.8102 72.7558 34.8102ZM72.7558 46.4971H23.8737C23.3125 46.4971 22.7743 46.2742 22.3775 45.8774C21.9807 45.4806 21.7578 44.9424 21.7578 44.3813C21.7578 43.8201 21.9807 43.2819 22.3775 42.8851C22.7743 42.4883 23.3125 42.2654 23.8737 42.2654H72.7558C73.317 42.2654 73.8552 42.4883 74.252 42.8851C74.6488 43.2819 74.8717 43.8201 74.8717 44.3813C74.8717 44.9424 74.6488 45.4806 74.252 45.8774C73.8552 46.2742 73.317 46.4971 72.7558 46.4971ZM72.7558 58.1758H23.8737C23.3125 58.1758 22.7743 57.9528 22.3775 57.556C21.9807 57.1592 21.7578 56.6211 21.7578 56.0599C21.7578 55.4987 21.9807 54.9606 22.3775 54.5638C22.7743 54.167 23.3125 53.944 23.8737 53.944H72.7558C73.317 53.944 73.8552 54.167 74.252 54.5638C74.6488 54.9606 74.8717 55.4987 74.8717 56.0599C74.8717 56.6211 74.6488 57.1592 74.252 57.556C73.8552 57.9528 73.317 58.1758 72.7558 58.1758ZM72.7558 69.871H23.8737C23.3237 69.8538 22.802 69.6232 22.4191 69.2281C22.0361 68.833 21.822 68.3043 21.822 67.7541C21.822 67.2038 22.0361 66.6752 22.4191 66.2801C22.802 65.8849 23.3237 65.6544 23.8737 65.6372H72.7558C73.3058 65.6544 73.8275 65.8849 74.2104 66.2801C74.5934 66.6752 74.8075 67.2038 74.8075 67.7541C74.8075 68.3043 74.5934 68.833 74.2104 69.2281C73.8275 69.6232 73.3058 69.8538 72.7558 69.871Z" fill="#666666"/>
<path d="M36.9851 79.1935L3.15 104.052C2.317 103.32 1.64971 102.419 1.19272 101.409C0.735733 100.399 0.499565 99.3035 0.500001 98.1949V53.3622C0.500017 52.2078 0.756719 51.0679 1.25152 50.0249L12.2076 58.9686L23.5115 68.196L36.9851 79.1935ZM96.1153 53.3622V98.1949C96.1154 99.3045 95.8783 100.401 95.4198 101.412C94.9613 102.422 94.2921 103.323 93.457 104.054L59.6302 79.1935L73.1038 68.196L84.4077 58.9686L95.3638 50.0249C95.8586 51.0679 96.1153 52.2078 96.1153 53.3622Z" fill="#F6BD6E"/>
<path d="M96.1179 53.3622V98.1949C96.118 99.3045 95.8809 100.401 95.4224 101.412C94.9639 102.422 94.2947 103.323 93.4597 104.054L59.6328 79.1935L73.1064 68.196L84.4103 58.9686L95.3664 50.0249C95.8612 51.0679 96.1179 52.2078 96.1179 53.3622Z" fill="#F6BD6E"/>
</g>
<defs>
<clipPath id="clip0_153_17924">
<rect width="106" height="106" fill="white" transform="translate(0.5)"/>
</clipPath>
</defs>
</svg>
