<svg width="211" height="177" viewBox="0 0 211 177" fill="none" xmlns="http://www.w3.org/2000/svg">
<g clip-path="url(#clip0_174_23566)">
<path d="M82.8557 138.997C77.0903 143.279 63.4445 147.209 63.4445 147.209C63.4445 147.209 64.5367 146.584 66.3327 145.698C68.1287 144.812 69.615 142.931 69.615 142.931C69.615 142.931 65.9479 145.165 60.855 146.883C55.7621 148.601 48.952 149.853 48.952 149.853C48.952 149.853 50.3357 149.181 52.7639 147.595C55.1922 146.009 59.3706 143.246 59.3706 143.246C59.3706 143.246 48.9484 148.95 33.0173 150.046C26.7827 150.474 16.5859 152.705 16.5859 152.705C16.5859 152.705 21.5121 148.46 23.8578 146.011C27.5799 142.125 31.9104 135.879 35.3044 131.932C40.357 126.055 50.7315 115.718 50.7315 115.718L48.6442 116.652C46.5568 117.586 44.0333 118.591 44.0333 118.591C44.0333 118.591 54.4646 108.653 62.2313 105.657C70.9784 102.28 82.6578 103.82 82.6578 103.82C82.6578 103.82 83.6841 108.81 87.5033 115.267C91.4508 121.944 94.7 124.66 94.7 124.66C94.7 124.66 91.689 132.438 82.8557 138.997Z" fill="url(#paint0_linear_174_23566)"/>
<path d="M84.2411 133.227C79.9088 136.445 69.6533 139.399 69.6533 139.399C69.6533 139.399 70.4744 138.93 71.825 138.263C73.1738 137.597 74.2917 136.183 74.2917 136.183C74.2917 136.183 71.5355 137.862 67.7089 139.153C63.8806 140.444 58.762 141.386 58.762 141.386C58.762 141.386 59.8011 140.88 61.6264 139.69C63.4517 138.498 66.591 136.421 66.591 136.421C66.591 136.421 58.7584 140.708 46.7858 141.53C42.0997 141.853 34.4375 143.528 34.4375 143.528C34.4375 143.528 38.1394 140.338 39.9024 138.498C42.699 135.577 45.9538 130.883 48.5048 127.916C52.302 123.499 60.0998 115.731 60.0998 115.731L58.5311 116.432C56.9624 117.134 55.0674 117.89 55.0674 117.89C55.0674 117.89 62.9074 110.422 68.7425 108.169C75.3162 105.631 84.0927 106.79 84.0927 106.79C84.0927 106.79 84.8642 110.541 87.7341 115.394C90.7011 120.412 93.1422 122.453 93.1422 122.453C93.1422 122.453 90.8789 128.295 84.2411 133.227Z" fill="url(#paint1_linear_174_23566)"/>
<path d="M90.8104 92.592C91.472 91.6013 109.866 71.8982 132.228 60.3408C154.59 48.7835 164.724 47.7927 164.724 47.7927C164.724 47.7927 170.341 51.7557 175.96 62.1026C181.577 72.4495 183.23 76.6322 182.79 77.9544C182.35 79.2748 160.538 102.831 136.635 112.628C112.732 122.426 109.978 122.975 109.978 122.975C109.978 122.975 107.004 122.646 103.589 117.472C100.175 112.299 92.2436 99.4192 91.3621 96.5587C90.4806 93.6927 90.8104 92.592 90.8104 92.592Z" fill="url(#paint2_linear_174_23566)"/>
<path d="M200.852 46.5803C199.531 44.7087 197.768 44.3791 187.084 44.4889C176.399 44.5988 165.273 48.1223 165.273 48.1223L165.4 48.3274C167.055 49.7118 171.504 53.9 175.958 62.1006C180.186 69.8874 182.167 74.1836 182.702 76.3958L183.118 77.0716L184.991 75.3099C186.864 73.5482 194.574 62.2105 197.438 56.9272C200.302 51.6439 202.173 48.4519 200.852 46.5803Z" fill="url(#paint3_linear_174_23566)"/>
<path d="M110.86 122.642L98.6328 148.399C98.6328 148.399 110.64 143.446 124.629 134.199C138.619 124.953 139.72 123.523 139.72 123.523L143.466 109.433C143.464 109.433 120.993 119.78 110.86 122.642Z" fill="url(#paint4_linear_174_23566)"/>
<path d="M118.238 68.9242L105.349 66.2816C105.349 66.2816 94.0034 71.0156 84.5305 77.1797C75.0576 83.3439 65.8047 90.2791 65.8047 90.2791L91.6906 91.5995C91.6906 91.6013 109.977 72.8871 118.238 68.9242Z" fill="url(#paint5_linear_174_23566)"/>
<path d="M103.59 117.469C100.176 112.295 92.2442 99.4156 91.3627 96.5551C91.1226 95.7768 90.976 95.134 90.8844 94.6029L84.2026 99.5273C84.2026 99.5273 83.7628 104.371 89.7097 113.396C95.6584 122.422 98.7427 125.504 100.174 125.395C101.605 125.285 107.774 122.093 107.774 122.093L107.647 121.886C106.53 121.1 105.104 119.761 103.59 117.469Z" fill="url(#paint6_linear_174_23566)"/>
<path d="M84.6409 102.388L82.658 103.818C82.658 103.818 82.4381 106.9 86.9537 114.384C91.4693 121.869 94.2237 124.622 95.4351 124.731C96.6465 124.841 97.528 123.741 97.528 123.741C97.528 123.741 86.9537 111.963 84.6409 102.388Z" fill="url(#paint7_linear_174_23566)"/>
<path d="M126.273 86.0966L116.358 89.5083C116.358 89.5083 100.988 98.0294 95.9792 101.066C89.697 104.875 71.3047 117.027 71.3047 117.027L72.0762 118.679L117.679 91.4916L127.704 87.6385L126.273 86.0966Z" fill="url(#paint8_linear_174_23566)"/>
<path d="M72.0859 118.679L97.2003 107.122C97.2003 107.122 106.845 101.609 109.977 99.6372C114.506 96.7822 127.712 87.6384 127.712 87.6384L117.247 91.6014L72.0859 118.679Z" fill="url(#paint9_linear_174_23566)"/>
</g>
<defs>
<linearGradient id="paint0_linear_174_23566" x1="16.5859" y1="128.086" x2="94.6998" y2="128.086" gradientUnits="userSpaceOnUse">
<stop stop-color="#88AEDA"/>
<stop offset="0.042" stop-color="#8EADD4"/>
<stop offset="0.496" stop-color="#CBA895"/>
<stop offset="0.828" stop-color="#F1A56D"/>
<stop offset="1" stop-color="#FFA45E"/>
</linearGradient>
<linearGradient id="paint1_linear_174_23566" x1="34.4373" y1="125.025" x2="93.1422" y2="125.025" gradientUnits="userSpaceOnUse">
<stop stop-color="#88CFDA"/>
<stop offset="0.042" stop-color="#8ED0D4"/>
<stop offset="0.496" stop-color="#CBD995"/>
<stop offset="0.828" stop-color="#F1DF6D"/>
<stop offset="1" stop-color="#FFE15E"/>
</linearGradient>
<linearGradient id="paint2_linear_174_23566" x1="152.687" y1="106.006" x2="82.4762" y2="14.4821" gradientUnits="userSpaceOnUse">
<stop stop-color="#A1BAFF"/>
<stop offset="0.488" stop-color="white"/>
</linearGradient>
<linearGradient id="paint3_linear_174_23566" x1="195.67" y1="67.9015" x2="182.131" y2="45.7964" gradientUnits="userSpaceOnUse">
<stop stop-color="#3D00BA"/>
<stop offset="0.745" stop-color="#7600FF"/>
</linearGradient>
<linearGradient id="paint4_linear_174_23566" x1="98.6323" y1="128.916" x2="143.465" y2="128.916" gradientUnits="userSpaceOnUse">
<stop stop-color="#3D00BA"/>
<stop offset="0.745" stop-color="#7600FF"/>
</linearGradient>
<linearGradient id="paint5_linear_174_23566" x1="108.824" y1="86.2088" x2="81.9521" y2="75.6284" gradientUnits="userSpaceOnUse">
<stop stop-color="#3D00BA"/>
<stop offset="0.745" stop-color="#7600FF"/>
</linearGradient>
<linearGradient id="paint6_linear_174_23566" x1="104.557" y1="125.626" x2="86.0713" y2="97.5464" gradientUnits="userSpaceOnUse">
<stop stop-color="#270036"/>
<stop offset="0.438" stop-color="#4F008B"/>
<stop offset="1" stop-color="#4C24B1"/>
</linearGradient>
<linearGradient id="paint7_linear_174_23566" x1="82.8193" y1="102.604" x2="96.0227" y2="125.727" gradientUnits="userSpaceOnUse">
<stop stop-color="#7633FF"/>
<stop offset="0.159" stop-color="#7137FF"/>
<stop offset="0.353" stop-color="#6243FF"/>
<stop offset="0.568" stop-color="#4957FF"/>
<stop offset="0.794" stop-color="#2672FF"/>
<stop offset="1" stop-color="#0090FF"/>
</linearGradient>
<linearGradient id="paint8_linear_174_23566" x1="131.16" y1="84.3641" x2="73.6806" y2="115.108" gradientUnits="userSpaceOnUse">
<stop stop-color="#7633FF"/>
<stop offset="0.132" stop-color="#6342FF"/>
<stop offset="0.534" stop-color="#2E6CFF"/>
<stop offset="0.835" stop-color="#0D86FF"/>
<stop offset="1" stop-color="#0090FF"/>
</linearGradient>
<linearGradient id="paint9_linear_174_23566" x1="72.0858" y1="103.158" x2="127.713" y2="103.158" gradientUnits="userSpaceOnUse">
<stop stop-color="#7600FF"/>
<stop offset="0.745" stop-color="#7601FF"/>
</linearGradient>
<clipPath id="clip0_174_23566">
<rect width="211" height="177" fill="white"/>
</clipPath>
</defs>
</svg>
