<svg width="8142" height="2405" viewBox="0 0 8142 2405" fill="none" xmlns="http://www.w3.org/2000/svg">
<path d="M11 2394.7C249.611 1832.31 1310.1 1743.6 1673 1832.31C2529.51 2041.7 2051.5 2301.99 2012.35 2320.26C1673 2478.56 1460.13 2210.08 1673 2111.51C2275.99 1832.31 2591.61 2379.57 3575.94 1743.6C4004.04 1467.01 4353.83 1346.98 4774.09 1326.1H6581.05C6602.34 1326.1 6619.61 1308.84 6619.61 1287.54V245.263C6619.61 223.965 6636.68 206.7 6657.98 206.7C6834.89 206.7 7569.58 206.7 7718.57 206.7C7888.24 206.7 8094.46 211.919 8131 11" stroke="#B48DFF" stroke-width="20" stroke-linecap="round" stroke-dasharray="38.56 38.56"/>
</svg>
