<svg width="95" height="94" viewBox="0 0 95 94" fill="none" xmlns="http://www.w3.org/2000/svg">
<g clip-path="url(#clip0_195_18784)">
<path d="M10.8823 36.1901V52.2931L1.1665 44.3618C1.65676 43.3229 2.39817 42.4225 3.32373 41.7419L10.8823 36.1901ZM82.4673 41.7419C83.3929 42.4225 84.1343 43.3229 84.6245 44.3618L74.9088 52.2931V36.1901L82.4673 41.7419Z" fill="#D79235"/>
<path d="M64.574 60.0848L64.8935 60.4759L52.9452 70.2284L47.2832 74.8531C46.0466 75.8614 44.5 76.4121 42.9045 76.4121C41.3089 76.4121 39.7623 75.8614 38.5257 74.8531L32.8637 70.2284L20.9062 60.4759L21.2257 60.0848H64.574Z" fill="#F1F2F4"/>
<path d="M74.9088 52.2931L64.8846 60.4758L64.5743 60.0848H21.226L20.9065 60.4758L10.8823 52.2931V16.1251C10.8823 14.2894 11.6115 12.5289 12.9096 11.2309C14.2076 9.93284 15.9681 9.20361 17.8038 9.20361H67.9873C69.823 9.20361 71.5835 9.93284 72.8816 11.2309C74.1796 12.5289 74.9088 14.2894 74.9088 16.1251V52.2931Z" fill="#F1F2F4"/>
<path d="M82.9337 92.2724C81.6714 93.3874 80.0445 94.0014 78.3603 93.9982H7.42154C5.73752 94.0007 4.11079 93.3868 2.84822 92.2724L32.8548 70.2283L38.5168 74.8531C39.7534 75.8614 41.3 76.412 42.8955 76.412C44.4911 76.412 46.0377 75.8614 47.2742 74.8531L52.9363 70.2283L82.9337 92.2724ZM10.8823 36.1901V52.2931L1.1665 44.3618C1.65676 43.3229 2.39817 42.4225 3.32373 41.7419L10.8823 36.1901ZM82.4673 41.7419C83.3929 42.4225 84.1343 43.3229 84.6245 44.3618L74.9088 52.2931V36.1901L82.4673 41.7419Z" fill="#D79235"/>
<path d="M64.574 60.0848L64.8935 60.4759L52.9452 70.2284L47.2832 74.8531C46.0466 75.8614 44.5 76.4121 42.9045 76.4121C41.3089 76.4121 39.7623 75.8614 38.5257 74.8531L32.8637 70.2284L20.9062 60.4759L21.2257 60.0848H64.574Z" fill="#F1F2F4"/>
<path d="M74.9088 52.2931L64.8846 60.4758L64.5743 60.0848H21.226L20.9065 60.4758L10.8823 52.2931V16.1251C10.8823 14.2894 11.6115 12.5289 12.9096 11.2309C14.2076 9.93284 15.9681 9.20361 17.8038 9.20361H67.9873C69.823 9.20361 71.5835 9.93284 72.8816 11.2309C74.1796 12.5289 74.9088 14.2894 74.9088 16.1251V52.2931Z" fill="#F1F2F4"/>
<path d="M82.9336 92.2725C81.6714 93.3875 80.0444 94.0014 78.3603 93.9983H7.42147C5.73744 94.0007 4.11072 93.3869 2.84814 92.2725L32.8547 70.2284L38.5167 74.8531C39.7533 75.8614 41.2999 76.4121 42.8955 76.4121C44.491 76.4121 46.0376 75.8614 47.2742 74.8531L52.9362 70.2284L82.9336 92.2725Z" fill="#D79235"/>
<path d="M64.5743 30.8695H21.2259C20.7283 30.8695 20.2511 30.6718 19.8992 30.3199C19.5473 29.968 19.3496 29.4908 19.3496 28.9931C19.3496 28.4955 19.5473 28.0183 19.8992 27.6664C20.2511 27.3145 20.7283 27.1168 21.2259 27.1168H64.5743C65.0719 27.1168 65.5491 27.3145 65.901 27.6664C66.2529 28.0183 66.4506 28.4955 66.4506 28.9931C66.4506 29.4908 66.2529 29.968 65.901 30.3199C65.5491 30.6718 65.0719 30.8695 64.5743 30.8695ZM64.5743 41.2333H21.2259C20.7283 41.2333 20.2511 41.0357 19.8992 40.6838C19.5473 40.3319 19.3496 39.8546 19.3496 39.357C19.3496 38.8594 19.5473 38.3821 19.8992 38.0303C20.2511 37.6784 20.7283 37.4807 21.2259 37.4807H64.5743C65.0719 37.4807 65.5491 37.6784 65.901 38.0303C66.2529 38.3821 66.4506 38.8594 66.4506 39.357C66.4506 39.8546 66.2529 40.3319 65.901 40.6838C65.5491 41.0357 65.0719 41.2333 64.5743 41.2333ZM64.5743 51.5899H21.2259C20.7283 51.5899 20.2511 51.3922 19.8992 51.0403C19.5473 50.6884 19.3496 50.2112 19.3496 49.7135C19.3496 49.2159 19.5473 48.7387 19.8992 48.3868C20.2511 48.0349 20.7283 47.8372 21.2259 47.8372H64.5743C65.0719 47.8372 65.5491 48.0349 65.901 48.3868C66.2529 48.7387 66.4506 49.2159 66.4506 49.7135C66.4506 50.2112 66.2529 50.6884 65.901 51.0403C65.5491 51.3922 65.0719 51.5899 64.5743 51.5899ZM64.5743 61.9611H21.2259C20.7382 61.9458 20.2756 61.7414 19.936 61.391C19.5964 61.0406 19.4065 60.5718 19.4065 60.0838C19.4065 59.5959 19.5964 59.1271 19.936 58.7767C20.2756 58.4263 20.7382 58.2218 21.2259 58.2066H64.5743C65.062 58.2218 65.5246 58.4263 65.8642 58.7767C66.2038 59.1271 66.3937 59.5959 66.3937 60.0838C66.3937 60.5718 66.2038 61.0406 65.8642 61.391C65.5246 61.7414 65.062 61.9458 64.5743 61.9611Z" fill="#666666"/>
<path d="M32.8547 70.2283L2.85 92.2724C2.1113 91.6237 1.51956 90.8249 1.1143 89.9292C0.709046 89.0335 0.499614 88.0617 0.500001 87.0786V47.3213C0.500015 46.2976 0.727657 45.2867 1.16645 44.3618L10.8822 52.2931L20.9064 60.4758L32.8547 70.2283ZM85.2909 47.3213V87.0786C85.291 88.0626 85.0807 89.0353 84.6742 89.9314C84.2676 90.8275 83.6741 91.6263 82.9336 92.2743L52.9362 70.2283L64.8845 60.4758L74.9087 52.2931L84.6245 44.3618C85.0633 45.2867 85.2909 46.2976 85.2909 47.3213Z" fill="#F6BD6E"/>
<path d="M85.2908 47.3213V87.0786C85.2909 88.0626 85.0806 89.0353 84.674 89.9314C84.2674 90.8275 83.674 91.6263 82.9334 92.2743L52.936 70.2283L64.8843 60.4758L74.9085 52.2931L84.6243 44.3618C85.0631 45.2867 85.2908 46.2976 85.2908 47.3213Z" fill="#F6BD6E"/>
<path d="M71.0002 38.9428C81.0123 38.9428 89.1287 30.8264 89.1287 20.8142C89.1287 10.8021 81.0123 2.68567 71.0002 2.68567C60.988 2.68567 52.8716 10.8021 52.8716 20.8142C52.8716 30.8264 60.988 38.9428 71.0002 38.9428Z" fill="#F05D6A"/>
<path d="M73.4053 20.8133L78.6933 15.5368C78.9249 15.3052 79.055 14.9911 79.055 14.6636C79.055 14.336 78.9249 14.0219 78.6933 13.7903C78.4617 13.5587 78.1477 13.4286 77.8202 13.4286C77.4927 13.4286 77.1786 13.5587 76.947 13.7903L71.6714 19.079L66.3957 13.7903C66.1641 13.5587 65.85 13.4286 65.5225 13.4286C65.1951 13.4286 64.881 13.5587 64.6494 13.7903C64.4178 14.0219 64.2877 14.336 64.2877 14.6636C64.2877 14.9911 64.4178 15.3052 64.6494 15.5368L69.9374 20.8133L64.6494 26.0897C64.5341 26.204 64.4427 26.3401 64.3802 26.4899C64.3178 26.6398 64.2856 26.8006 64.2856 26.9629C64.2856 27.1253 64.3178 27.2861 64.3802 27.436C64.4427 27.5858 64.5341 27.7219 64.6494 27.8362C64.7637 27.9515 64.8997 28.043 65.0496 28.1054C65.1995 28.1679 65.3602 28.2 65.5225 28.2C65.6849 28.2 65.8456 28.1679 65.9955 28.1054C66.1453 28.043 66.2813 27.9515 66.3957 27.8362L71.6714 22.5475L76.947 27.8362C77.0614 27.9515 77.1974 28.043 77.3472 28.1054C77.4971 28.1679 77.6578 28.2 77.8202 28.2C77.9825 28.2 78.1433 28.1679 78.2931 28.1054C78.443 28.043 78.579 27.9515 78.6933 27.8362C78.8086 27.7219 78.9001 27.5858 78.9625 27.436C79.0249 27.2861 79.0571 27.1253 79.0571 26.9629C79.0571 26.8006 79.0249 26.6398 78.9625 26.4899C78.9001 26.3401 78.8086 26.204 78.6933 26.0897L73.4053 20.8133Z" fill="white"/>
</g>
<defs>
<clipPath id="clip0_195_18784">
<rect width="94" height="94" fill="white" transform="translate(0.5)"/>
</clipPath>
</defs>
</svg>
