<svg width="201" height="200" viewBox="0 0 201 200" fill="none" xmlns="http://www.w3.org/2000/svg">
<path d="M127.98 113.316C128.31 134.666 132.754 155.941 141.296 175.282C128.239 188.267 108.771 189.15 90.4576 187.261C82.6061 137.231 83.0929 138.307 81.2909 134.79C80.2192 132.703 78.6332 130.903 77.4279 128.905C72.0143 119.869 75.5318 107.529 83.2577 100.307C87.0697 96.7545 92.0593 94.0883 97.2885 94.2943C101.422 94.4497 105.266 96.3426 108.96 98.181C116.454 101.943 127.866 105.053 127.98 113.316Z" fill="#EA9581"/>
<g filter="url(#filter0_d_166_21607)">
<path d="M155.532 82.0978C146.832 89.0939 136.437 93.6918 126.116 98.0333C127.094 102.375 132.264 126.212 130.827 130.433C129.897 133.154 126.823 134.708 123.937 134.642C121.052 134.576 118.351 133.212 115.976 131.591C106.389 125.073 100.685 114.474 95.3184 104.275C87.8594 115.904 78.9675 126.212 68.3993 134.429C66.774 135.696 64.8936 136.974 62.8365 136.761C60.7794 136.547 59.2051 134.911 58.4946 133.037C56.6887 128.373 58.6241 110.494 66.5895 95.0328C56.7476 87.9201 50.8511 82.432 40.1729 76.0772C38.21 74.9112 36.0783 73.5314 35.5013 71.3354C35.0066 69.4426 35.8585 67.3982 37.2325 65.9951C38.6065 64.592 40.436 63.7252 42.2536 62.9712C53.7561 58.2178 66.3461 56.974 78.7908 55.773C79.0382 55.1278 79.1285 54.8985 79.1363 54.8791C83.4547 43.6465 88.091 33.2806 93.6224 23.3967C94.8434 21.2084 96.3705 18.8414 98.8476 18.2973C102.381 17.5199 105.357 20.8703 107.005 24.038C112.266 34.124 113.094 46.1495 119.175 55.8158C130.933 59.17 142.793 62.5048 153.769 67.7985C161.907 71.7319 162.135 76.7963 155.532 82.0978Z" fill="#FFB020"/>
</g>
<path d="M128.416 109.029C110.558 111.668 103.527 91.562 103.527 91.562L124.4 94.9862L126.477 99.6502C127.219 103.012 127.804 105.857 128.416 109.029ZM76.5529 115.489C76.5529 115.489 72.8195 121.941 65.0582 116.969C62.797 115.524 61.05 114.447 59.8369 113.471C60.3316 111.322 60.9597 109.087 61.4818 107.463L72.3484 102.27L79.4894 105.803C79.4894 105.803 89.7317 113.129 76.5529 115.489ZM78.5472 71.145C72.6585 71.5842 70.04 61.0979 69.2235 56.7642C72.4112 56.3949 75.6107 56.084 78.7906 55.7769C78.8966 55.501 78.9986 55.2328 79.1086 54.9568L80.1568 54.8558C80.2706 54.5565 80.3845 54.2611 80.5022 53.9618L82.4651 56.7758C82.4651 56.7758 85.9748 70.5892 78.5472 71.145ZM127.631 58.2489C126.061 61.1445 123.788 64.4676 121.699 64.4676C118.559 64.4676 116.729 60.9152 117.915 53.6315C118.119 54.0473 118.751 55.1317 119.163 55.7886C121.998 56.6165 124.84 57.4171 127.631 58.2489Z" fill="#EF8318"/>
<path d="M29.286 82.3971C26.5026 79.9368 24.0019 73.2983 21.5601 74.6236C20.9947 74.9307 20.7749 75.6264 20.6493 76.2483C19.9978 79.2186 19.5687 82.2325 19.3655 85.2655C16.484 86.4315 8.3498 89.6847 9.86515 92.1838C10.1674 92.6813 12.6368 93.4043 13.206 93.5519C16.2917 94.3293 16.2917 94.7413 19.2281 95.7829C18.7021 98.558 18.5686 106.81 21.352 106.304C21.8741 106.211 22.2431 105.76 22.5297 105.333C24.3725 102.856 26.0022 100.231 27.4016 97.4853C29.5019 99.6463 34.6133 103.56 37.3064 102.837C37.6674 102.753 37.9937 102.562 38.2415 102.289C38.4893 102.016 38.6466 101.674 38.6922 101.31C38.7471 100.019 35.6693 95.1338 34.0754 92.2732C38.2839 88.849 43.9331 83.7496 38.6608 82.8674C35.5947 82.3543 32.4619 82.3776 29.286 82.3971ZM171.713 84.0994C174.497 81.6392 176.997 75.0006 179.439 76.326C180.005 76.6369 180.224 77.3288 180.35 77.9507C181 80.9213 181.429 83.9351 181.634 86.9678C184.515 88.1339 192.65 91.3909 191.134 93.8862C190.832 94.3837 188.359 95.1066 187.793 95.2543C184.704 96.0511 184.708 96.4437 181.771 97.4853C182.297 100.26 182.431 108.512 179.647 108.007C179.125 107.913 178.756 107.463 178.45 107.035C176.61 104.558 174.987 101.93 173.598 99.1799C171.497 101.341 166.386 105.255 163.693 104.532C163.331 104.449 163.004 104.258 162.757 103.985C162.509 103.711 162.352 103.369 162.307 103.004C162.252 101.714 165.33 96.8284 166.924 93.9678C162.751 90.5747 157.039 85.452 162.339 84.562C165.405 84.0645 168.533 84.0645 171.713 84.0994Z" fill="#FFB020"/>
<path d="M118.123 12.611C120.373 13.3341 122.511 14.3594 124.479 15.6582C120.572 20.3606 115.075 23.4997 109.008 24.4927C108.377 22.609 107.538 20.7999 106.507 19.098C108.843 19.0989 111.141 18.5022 113.176 17.3657C115.211 16.2292 116.915 14.5914 118.123 12.611Z" fill="#08AD36"/>
<path d="M160.662 44.3228C154.674 46.767 147.957 46.7949 141.948 44.4005C141.066 46.1014 139.702 47.5103 138.022 48.4543C149.14 49.3833 152.155 49.5815 157.388 47.2883C159.025 46.5654 160.478 45.2983 160.662 44.3228Z" fill="#FF605B"/>
<path d="M40.3378 39.9968C41.9552 40.7508 43.2625 42.0063 44.6561 43.1062C48.3917 46.0546 52.9139 47.8617 57.6701 48.3066C54.9445 50.2037 52.1034 51.9327 49.1629 53.4837C42.3674 48.6953 39.0619 46.6353 37.0244 43.4482C38.3143 42.4874 39.434 41.321 40.3378 39.9968Z" fill="#7600FF"/>
<path d="M47.2863 116.06C48.3341 118.264 50.2172 119.971 52.5272 120.81C49.2924 125.003 45.1625 130.208 39.0029 129.97C36.9183 128.245 34.8337 126.519 32.7217 124.848C35.7878 125.174 38.877 124.49 41.5102 122.901C44.1435 121.312 46.1738 118.907 47.2863 116.06Z" fill="#08AD36"/>
<path d="M63.2051 151.623C65.6934 150.918 68.103 149.965 70.3971 148.778C70.3971 151.429 70.8839 154.193 72.4974 156.303C74.1109 158.413 77.1102 159.649 79.6502 158.783C77.5734 160.318 75.5006 161.857 73.3689 163.47C68.1594 161.651 64.0295 157.038 63.2051 151.623Z" fill="#FF605B"/>
<path d="M138.973 114.237C141.265 113.186 143.44 111.9 145.462 110.401C145.91 114.038 147.513 117.44 150.039 120.118C151.582 121.746 153.573 122.974 155.634 122.061C153.408 124.082 150.93 125.813 148.261 127.211C143.684 124.257 140.178 119.698 138.973 114.237Z" fill="#7600FF"/>
<path d="M92.7504 127.261L92.3578 127.23L91.9653 127.141C92.244 125.4 93.5591 119.441 98.8 115.741C98.8849 115.681 98.9903 115.657 99.093 115.675C99.1957 115.692 99.2873 115.749 99.3477 115.833C99.4081 115.917 99.4323 116.021 99.415 116.123C99.3977 116.224 99.3403 116.315 99.2554 116.375C94.2697 119.9 93.0134 125.598 92.7504 127.261ZM92.3304 138.366C92.2769 138.374 92.2224 138.371 92.1701 138.358C92.1179 138.344 92.069 138.32 92.0267 138.287C91.9843 138.253 91.9493 138.212 91.9238 138.165C91.8984 138.117 91.8831 138.065 91.8789 138.012C91.8436 137.623 92.0398 137.623 92.8603 137.507C109.671 135.4 109.38 133.025 109.867 134.052C109.911 134.145 109.916 134.252 109.881 134.349C109.845 134.446 109.773 134.525 109.678 134.568C106.538 136.034 100.916 137.289 92.9585 138.276L92.5149 138.331C92.4714 138.35 92.4249 138.362 92.3775 138.366H92.3304Z" fill="#C9563F"/>
<path d="M130.304 122.185C135.82 117.183 135.243 114.657 138.156 107.84C140.338 102.74 141.646 96.7585 139.216 91.768C138.763 90.7184 138.022 89.816 137.076 89.1639C133.241 86.793 121.919 89.6497 114.522 87.9434C111.327 87.2049 107.542 85.8018 105.101 87.9784C103.923 89.0473 103.452 90.7457 103.53 92.3354C103.899 100.237 115.759 107.579 126.578 107.043C128.734 113.821 130.198 116.896 130.304 122.185ZM84.9298 108.038C81.321 103.349 77.2234 99.0502 72.705 95.2116C71.0679 93.8201 69.3406 92.4909 67.3306 91.6863C61.6971 89.4826 57.3748 93.3188 58.3366 96.9956C58.6546 98.2121 59.5143 99.1994 60.3819 100.105C62.7099 102.612 72.8934 112.822 76.2068 113.65C78.2796 114.167 82.6254 113.036 84.2271 111.163C85.2518 109.993 85.5148 108.034 84.9298 108.038Z" fill="#EA9581"/>
<path d="M60.8729 98.2937C55.683 103.051 54.8194 106.456 60.0132 111.12C63.2873 114.062 66.9814 116.682 70.9308 117.669C71.3021 117.758 71.6937 117.704 72.0261 117.517C74.6642 116.079 75.5239 114.676 74.6289 111.94C73.1096 107.295 67.2837 102.025 63.5032 99.3043C62.6984 98.7213 61.7876 98.1421 60.8729 98.2937ZM77.4083 44.999C70.5578 45.3216 69.5371 47.778 70.1888 52.3061C70.8405 56.8341 71.5746 61.3777 73.1567 65.6725C74.9468 70.5425 77.3102 70.9273 80.2231 70.1694C83.3441 69.3532 84.7299 68.09 84.2941 63.1384C83.8675 58.2774 83.3297 53.428 82.6806 48.5904C82.5393 47.5215 82.3469 46.3672 81.5657 45.617C80.4783 44.5715 78.747 44.9368 77.4083 44.999ZM120.6 44.5598C123.646 45.2944 129.66 44.1712 128.161 51.1206C127.548 53.9618 125.413 61.4049 123.21 63.2666C122.373 63.9238 121.322 64.257 120.255 64.2041C119.187 64.1512 118.175 63.7158 117.408 62.979C114.625 60.1261 114.02 48.672 115.724 45.9979C116.725 44.4199 118.951 44.1634 120.6 44.5598Z" fill="#EA9581"/>
<path d="M92.6039 40.7048C93.7507 37.8806 93.8388 35.2562 92.8007 34.8431C91.7627 34.4299 89.9916 36.3845 88.8449 39.2087C87.6982 42.0329 87.61 44.6572 88.6481 45.0704C89.6861 45.4835 91.4572 43.529 92.6039 40.7048Z" fill="white"/>
<path d="M54.5683 63.5464C52.417 63.9584 50.5523 63.6669 50.3992 62.8935C50.0341 61.0395 57.8189 59.5353 58.184 61.3932C58.3175 62.1667 56.6961 63.1306 54.5683 63.5464ZM135.129 63.6047C135.337 62.8274 137.218 62.6797 139.334 63.2394C141.45 63.7991 142.997 64.8718 142.792 65.6336C142.298 67.4604 134.654 65.4315 135.129 63.6047Z" fill="white"/>
<path d="M163.14 37.1479C166.304 38.3528 169.747 39.5771 173.037 38.6598C167.933 45.6093 159.049 49.6281 150.385 49.0102C156.27 47.3428 161.267 42.8653 163.14 37.1479Z" fill="#BD3234"/>
<path d="M60.869 102.293C60.812 102.263 60.7626 102.221 60.7244 102.169C60.6863 102.118 60.6604 102.059 60.6487 101.996C60.637 101.933 60.6398 101.868 60.6569 101.807C60.6739 101.745 60.7048 101.688 60.7473 101.64C60.9357 101.45 61.0495 101.442 61.3204 101.64C61.9171 102.149 71.8925 111.536 74.9704 112.733C75.067 112.77 75.1448 112.844 75.1867 112.938C75.2287 113.032 75.2313 113.138 75.1941 113.234C74.515 114.975 62.3019 103.591 60.869 102.293ZM137.17 97.9866C135.6 90.7262 134.897 89.9994 135.628 89.8245C135.729 89.8012 135.835 89.8183 135.923 89.8722C136.011 89.9261 136.074 90.0123 136.099 90.1121C137.669 97.3725 138.372 98.1032 137.642 98.2743C137.61 98.282 137.218 98.1926 137.17 97.9866ZM117.722 97.7457C118.959 94.8889 117.722 91.2082 117.722 91.1693C117.706 91.1208 117.699 91.0696 117.702 91.0186C117.706 90.9675 117.72 90.9176 117.743 90.8718C117.765 90.826 117.797 90.7851 117.836 90.7514C117.875 90.7178 117.92 90.692 117.969 90.6757C118.018 90.6594 118.07 90.6528 118.122 90.6562C118.173 90.6597 118.224 90.6732 118.27 90.6959C118.316 90.7187 118.358 90.7502 118.392 90.7887C118.426 90.8273 118.452 90.8721 118.468 90.9206C118.523 91.0838 119.811 94.9239 118.468 98.0527C118.427 98.1506 118.348 98.2284 118.249 98.2688C118.15 98.3093 118.039 98.3091 117.94 98.2684C117.841 98.2277 117.763 98.1497 117.722 98.0517C117.681 97.9537 117.681 97.8436 117.722 97.7457ZM74.2676 64.5064C74.2282 64.4735 74.1957 64.4333 74.1719 64.3879C74.1482 64.3425 74.1337 64.293 74.1294 64.2421C74.125 64.1912 74.1308 64.1399 74.1464 64.0913C74.1621 64.0426 74.1873 63.9974 74.2205 63.9584C74.303 63.904 77.1138 59.6442 82.4372 61.7818C82.5274 61.8246 82.5977 61.8997 82.6338 61.992C82.6699 62.0843 82.6691 62.1867 82.6315 62.2785C82.594 62.3702 82.5225 62.4442 82.4317 62.4856C82.3409 62.5269 82.2375 62.5324 82.1428 62.5009C77.53 60.6508 74.8801 64.4209 74.8173 64.4443C74.7449 64.5123 74.6521 64.5552 74.553 64.5664C74.4538 64.5777 74.3536 64.5566 74.2676 64.5064ZM124.518 57.281C119.928 52.3876 116.925 56.5037 116.803 56.5853C116.736 56.6642 116.639 56.7132 116.535 56.7216C116.431 56.7299 116.328 56.697 116.248 56.63C116.168 56.563 116.119 56.4674 116.11 56.3643C116.102 56.2611 116.135 56.1589 116.203 56.08C116.242 56.0606 119.924 51.2722 125.079 56.768C125.122 56.8442 125.138 56.9327 125.125 57.0192C125.111 57.1056 125.068 57.1849 125.003 57.2442C124.938 57.3036 124.855 57.3395 124.767 57.3462C124.679 57.3529 124.591 57.3299 124.518 57.281Z" fill="#C9563F"/>
<defs>
<filter id="filter0_d_166_21607" x="31.3594" y="18.1836" width="132.845" height="126.601" filterUnits="userSpaceOnUse" color-interpolation-filters="sRGB">
<feFlood flood-opacity="0" result="BackgroundImageFix"/>
<feColorMatrix in="SourceAlpha" type="matrix" values="0 0 0 0 0 0 0 0 0 0 0 0 0 0 0 0 0 0 127 0" result="hardAlpha"/>
<feOffset dy="4"/>
<feGaussianBlur stdDeviation="2"/>
<feComposite in2="hardAlpha" operator="out"/>
<feColorMatrix type="matrix" values="0 0 0 0 0 0 0 0 0 0 0 0 0 0 0 0 0 0 0.03 0"/>
<feBlend mode="normal" in2="BackgroundImageFix" result="effect1_dropShadow_166_21607"/>
<feBlend mode="normal" in="SourceGraphic" in2="effect1_dropShadow_166_21607" result="shape"/>
</filter>
</defs>
</svg>
